<?xml version="1.0" encoding="UTF-8" standalone="no"?>
<!DOCTYPE svg PUBLIC "-//W3C//DTD SVG 1.1//EN"
 "http://www.w3.org/Graphics/SVG/1.1/DTD/svg11.dtd">
<!-- Generated by graphviz version 7.1.0 (0)
 -->
<!-- Pages: 1 -->
<svg width="307pt" height="233pt"
 viewBox="0.00 0.00 307.22 232.91" xmlns="http://www.w3.org/2000/svg" xmlns:xlink="http://www.w3.org/1999/xlink">
<g id="graph0" class="graph" transform="scale(1 1) rotate(0) translate(4 228.91)">
<polygon fill="white" stroke="none" points="-4,4 -4,-228.91 303.22,-228.91 303.22,4 -4,4"/>
<g id="clust1" class="cluster">
<title>cluster5</title>
<path fill="none" stroke="black" d="M93.72,-8C93.72,-8 185.72,-8 185.72,-8 191.72,-8 197.72,-14 197.72,-20 197.72,-20 197.72,-109.95 197.72,-109.95 197.72,-115.95 191.72,-121.95 185.72,-121.95 185.72,-121.95 93.72,-121.95 93.72,-121.95 87.72,-121.95 81.72,-115.95 81.72,-109.95 81.72,-109.95 81.72,-20 81.72,-20 81.72,-14 87.72,-8 93.72,-8"/>
<text text-anchor="middle" x="186.22" y="-15.8" font-family="Times,serif" font-size="14.00">5</text>
</g>
<!-- alpha -->
<g id="node1" class="node">
<title>alpha</title>
<ellipse fill="none" stroke="black" cx="41.72" cy="-187.43" rx="41.94" ry="37.45"/>
<text text-anchor="middle" x="41.72" y="-198.73" font-family="Times,serif" font-size="14.00">alpha</text>
<text text-anchor="middle" x="41.72" y="-183.73" font-family="Times,serif" font-size="14.00">~</text>
<text text-anchor="middle" x="41.72" y="-168.73" font-family="Times,serif" font-size="14.00">Normal</text>
</g>
<!-- likelihood -->
<g id="node5" class="node">
<title>likelihood</title>
<ellipse fill="lightgrey" stroke="black" cx="139.72" cy="-76.48" rx="50.41" ry="37.45"/>
<text text-anchor="middle" x="139.72" y="-87.78" font-family="Times,serif" font-size="14.00">likelihood</text>
<text text-anchor="middle" x="139.72" y="-72.78" font-family="Times,serif" font-size="14.00">~</text>
<text text-anchor="middle" x="139.72" y="-57.78" font-family="Times,serif" font-size="14.00">Normal</text>
</g>
<!-- alpha&#45;&gt;likelihood -->
<g id="edge2" class="edge">
<title>alpha&#45;&gt;likelihood</title>
<path fill="none" stroke="black" d="M67.72,-157.52C79.09,-144.88 92.59,-129.88 104.81,-116.29"/>
<polygon fill="black" stroke="black" points="107.12,-118.95 111.21,-109.17 101.92,-114.27 107.12,-118.95"/>
</g>
<!-- tau -->
<g id="node2" class="node">
<title>tau</title>
<ellipse fill="none" stroke="black" cx="250.72" cy="-187.43" rx="43.27" ry="37.45"/>
<text text-anchor="middle" x="250.72" y="-198.73" font-family="Times,serif" font-size="14.00">tau</text>
<text text-anchor="middle" x="250.72" y="-183.73" font-family="Times,serif" font-size="14.00">~</text>
<text text-anchor="middle" x="250.72" y="-168.73" font-family="Times,serif" font-size="14.00">Gamma</text>
</g>
<!-- sigma -->
<g id="node3" class="node">
<title>sigma</title>
<polygon fill="none" stroke="black" points="299.22,-102.98 208.22,-102.98 208.22,-49.98 299.22,-49.98 299.22,-102.98"/>
<text text-anchor="middle" x="253.72" y="-87.78" font-family="Times,serif" font-size="14.00">sigma</text>
<text text-anchor="middle" x="253.72" y="-72.78" font-family="Times,serif" font-size="14.00">~</text>
<text text-anchor="middle" x="253.72" y="-57.78" font-family="Times,serif" font-size="14.00">Deterministic</text>
</g>
<!-- tau&#45;&gt;sigma -->
<g id="edge1" class="edge">
<title>tau&#45;&gt;sigma</title>
<path fill="none" stroke="black" d="M251.73,-149.54C252.05,-138.27 252.39,-125.88 252.7,-114.59"/>
<polygon fill="black" stroke="black" points="256.19,-114.93 252.97,-104.84 249.19,-114.74 256.19,-114.93"/>
</g>
<!-- tau&#45;&gt;likelihood -->
<g id="edge3" class="edge">
<title>tau&#45;&gt;likelihood</title>
<path fill="none" stroke="black" d="M222.42,-158.65C208.76,-145.25 192.19,-128.98 177.47,-114.53"/>
<polygon fill="black" stroke="black" points="180.19,-112.29 170.6,-107.79 175.28,-117.29 180.19,-112.29"/>
</g>
<!-- beta -->
<g id="node4" class="node">
<title>beta</title>
<ellipse fill="none" stroke="black" cx="142.72" cy="-187.43" rx="41.94" ry="37.45"/>
<text text-anchor="middle" x="142.72" y="-198.73" font-family="Times,serif" font-size="14.00">beta</text>
<text text-anchor="middle" x="142.72" y="-183.73" font-family="Times,serif" font-size="14.00">~</text>
<text text-anchor="middle" x="142.72" y="-168.73" font-family="Times,serif" font-size="14.00">Normal</text>
</g>
<!-- beta&#45;&gt;likelihood -->
<g id="edge4" class="edge">
<title>beta&#45;&gt;likelihood</title>
<path fill="none" stroke="black" d="M141.7,-149.54C141.49,-141.91 141.27,-133.76 141.05,-125.79"/>
<polygon fill="black" stroke="black" points="144.55,-125.74 140.78,-115.84 137.55,-125.93 144.55,-125.74"/>
</g>
</g>
</svg>