<?xml version="1.0" encoding="UTF-8" standalone="no"?>
<!DOCTYPE svg PUBLIC "-//W3C//DTD SVG 1.1//EN"
 "http://www.w3.org/Graphics/SVG/1.1/DTD/svg11.dtd">
<!-- Generated by graphviz version 8.1.0 (0)
 -->
<!-- Pages: 1 -->
<svg width="204pt" height="364pt"
 viewBox="0.00 0.00 204.45 364.45" xmlns="http://www.w3.org/2000/svg" xmlns:xlink="http://www.w3.org/1999/xlink">
<g id="graph0" class="graph" transform="scale(1 1) rotate(0) translate(4 360.45)">
<polygon fill="white" stroke="none" points="-4,4 -4,-360.45 200.45,-360.45 200.45,4 -4,4"/>
<g id="clust1" class="cluster">
<title>cluster159</title>
<path fill="none" stroke="black" d="M51.72,-8C51.72,-8 143.72,-8 143.72,-8 149.72,-8 155.72,-14 155.72,-20 155.72,-20 155.72,-235.13 155.72,-235.13 155.72,-241.13 149.72,-247.13 143.72,-247.13 143.72,-247.13 51.72,-247.13 51.72,-247.13 45.72,-247.13 39.72,-241.13 39.72,-235.13 39.72,-235.13 39.72,-20 39.72,-20 39.72,-14 45.72,-8 51.72,-8"/>
<text text-anchor="middle" x="137.6" y="-15.2" font-family="Times,serif" font-size="14.00">159</text>
</g>
<!-- alpha -->
<g id="node1" class="node">
<title>alpha</title>
<ellipse fill="none" stroke="black" cx="44.72" cy="-315.79" rx="44.72" ry="40.66"/>
<text text-anchor="middle" x="44.72" y="-327.24" font-family="Times,serif" font-size="14.00">alpha</text>
<text text-anchor="middle" x="44.72" y="-310.74" font-family="Times,serif" font-size="14.00">~</text>
<text text-anchor="middle" x="44.72" y="-294.24" font-family="Times,serif" font-size="14.00">Uniform</text>
</g>
<!-- lam -->
<g id="node4" class="node">
<title>lam</title>
<ellipse fill="none" stroke="black" cx="97.72" cy="-198.48" rx="42.6" ry="40.66"/>
<text text-anchor="middle" x="97.72" y="-209.93" font-family="Times,serif" font-size="14.00">lam</text>
<text text-anchor="middle" x="97.72" y="-193.43" font-family="Times,serif" font-size="14.00">~</text>
<text text-anchor="middle" x="97.72" y="-176.93" font-family="Times,serif" font-size="14.00">Gamma</text>
</g>
<!-- alpha&#45;&gt;lam -->
<g id="edge1" class="edge">
<title>alpha&#45;&gt;lam</title>
<path fill="none" stroke="black" d="M61.64,-277.99C66.37,-267.69 71.57,-256.37 76.52,-245.61"/>
<polygon fill="black" stroke="black" points="79.97,-247.48 80.97,-236.93 73.61,-244.56 79.97,-247.48"/>
</g>
<!-- beta -->
<g id="node2" class="node">
<title>beta</title>
<ellipse fill="none" stroke="black" cx="151.72" cy="-315.79" rx="44.72" ry="40.66"/>
<text text-anchor="middle" x="151.72" y="-327.24" font-family="Times,serif" font-size="14.00">beta</text>
<text text-anchor="middle" x="151.72" y="-310.74" font-family="Times,serif" font-size="14.00">~</text>
<text text-anchor="middle" x="151.72" y="-294.24" font-family="Times,serif" font-size="14.00">Uniform</text>
</g>
<!-- beta&#45;&gt;lam -->
<g id="edge2" class="edge">
<title>beta&#45;&gt;lam</title>
<path fill="none" stroke="black" d="M134.49,-277.99C129.67,-267.69 124.37,-256.37 119.33,-245.61"/>
<polygon fill="black" stroke="black" points="122.21,-244.5 114.8,-236.93 115.87,-247.47 122.21,-244.5"/>
</g>
<!-- likelihood -->
<g id="node3" class="node">
<title>likelihood</title>
<ellipse fill="lightgrey" stroke="black" cx="97.72" cy="-81.16" rx="50.03" ry="40.66"/>
<text text-anchor="middle" x="97.72" y="-92.61" font-family="Times,serif" font-size="14.00">likelihood</text>
<text text-anchor="middle" x="97.72" y="-76.11" font-family="Times,serif" font-size="14.00">~</text>
<text text-anchor="middle" x="97.72" y="-59.61" font-family="Times,serif" font-size="14.00">Poisson</text>
</g>
<!-- lam&#45;&gt;likelihood -->
<g id="edge3" class="edge">
<title>lam&#45;&gt;likelihood</title>
<path fill="none" stroke="black" d="M97.72,-157.47C97.72,-149.6 97.72,-141.24 97.72,-133.07"/>
<polygon fill="black" stroke="black" points="101.22,-133.1 97.72,-123.1 94.22,-133.1 101.22,-133.1"/>
</g>
</g>
</svg>