<?xml version="1.0" encoding="UTF-8" standalone="no"?>
<!DOCTYPE svg PUBLIC "-//W3C//DTD SVG 1.1//EN"
 "http://www.w3.org/Graphics/SVG/1.1/DTD/svg11.dtd">
<!-- Generated by graphviz version 9.0.0 (0)
 -->
<!-- Pages: 1 -->
<svg width="434pt" height="377pt"
 viewBox="0.00 0.00 434.16 376.95" xmlns="http://www.w3.org/2000/svg" xmlns:xlink="http://www.w3.org/1999/xlink">
<g id="graph0" class="graph" transform="scale(1 1) rotate(0) translate(4 372.95)">
<polygon fill="white" stroke="none" points="-4,4 -4,-372.95 430.16,-372.95 430.16,4 -4,4"/>
<g id="clust1" class="cluster">
<title>cluster30 x 1</title>
<path fill="none" stroke="black" d="M133.5,-137.82C133.5,-137.82 307.5,-137.82 307.5,-137.82 313.5,-137.82 319.5,-143.82 319.5,-149.82 319.5,-149.82 319.5,-247.63 319.5,-247.63 319.5,-253.63 313.5,-259.63 307.5,-259.63 307.5,-259.63 133.5,-259.63 133.5,-259.63 127.5,-259.63 121.5,-253.63 121.5,-247.63 121.5,-247.63 121.5,-149.82 121.5,-149.82 121.5,-143.82 127.5,-137.82 133.5,-137.82"/>
<text text-anchor="middle" x="294.25" y="-145.02" font-family="Times,serif" font-size="14.00">30 x 1</text>
</g>
<g id="clust2" class="cluster">
<title>cluster30 x 5</title>
<path fill="none" stroke="black" d="M232.5,-8C232.5,-8 306.5,-8 306.5,-8 312.5,-8 318.5,-14 318.5,-20 318.5,-20 318.5,-117.82 318.5,-117.82 318.5,-123.82 312.5,-129.82 306.5,-129.82 306.5,-129.82 232.5,-129.82 232.5,-129.82 226.5,-129.82 220.5,-123.82 220.5,-117.82 220.5,-117.82 220.5,-20 220.5,-20 220.5,-14 226.5,-8 232.5,-8"/>
<text text-anchor="middle" x="293.25" y="-15.2" font-family="Times,serif" font-size="14.00">30 x 5</text>
</g>
<!-- mu_alpha -->
<g id="node1" class="node">
<title>mu_alpha</title>
<ellipse fill="none" stroke="black" cx="49.5" cy="-328.29" rx="49.5" ry="40.66"/>
<text text-anchor="middle" x="49.5" y="-339.74" font-family="Times,serif" font-size="14.00">mu_alpha</text>
<text text-anchor="middle" x="49.5" y="-323.24" font-family="Times,serif" font-size="14.00">~</text>
<text text-anchor="middle" x="49.5" y="-306.74" font-family="Times,serif" font-size="14.00">Normal</text>
</g>
<!-- alpha -->
<g id="node7" class="node">
<title>alpha</title>
<ellipse fill="none" stroke="black" cx="170.5" cy="-210.98" rx="41.01" ry="40.66"/>
<text text-anchor="middle" x="170.5" y="-222.43" font-family="Times,serif" font-size="14.00">alpha</text>
<text text-anchor="middle" x="170.5" y="-205.93" font-family="Times,serif" font-size="14.00">~</text>
<text text-anchor="middle" x="170.5" y="-189.43" font-family="Times,serif" font-size="14.00">Normal</text>
</g>
<!-- mu_alpha&#45;&gt;alpha -->
<g id="edge2" class="edge">
<title>mu_alpha&#45;&gt;alpha</title>
<path fill="none" stroke="black" d="M81.29,-296.99C97.29,-281.74 116.79,-263.16 133.47,-247.26"/>
<polygon fill="black" stroke="black" points="135.48,-250.18 140.31,-240.75 130.65,-245.11 135.48,-250.18"/>
</g>
<!-- sigma -->
<g id="node2" class="node">
<title>sigma</title>
<polygon fill="none" stroke="black" points="418.62,-109.91 328.37,-109.91 328.37,-52.41 418.62,-52.41 418.62,-109.91"/>
<text text-anchor="middle" x="373.5" y="-92.61" font-family="Times,serif" font-size="14.00">sigma</text>
<text text-anchor="middle" x="373.5" y="-76.11" font-family="Times,serif" font-size="14.00">~</text>
<text text-anchor="middle" x="373.5" y="-59.61" font-family="Times,serif" font-size="14.00">Deterministic</text>
</g>
<!-- tau_alpha -->
<g id="node3" class="node">
<title>tau_alpha</title>
<ellipse fill="none" stroke="black" cx="165.5" cy="-328.29" rx="48.44" ry="40.66"/>
<text text-anchor="middle" x="165.5" y="-339.74" font-family="Times,serif" font-size="14.00">tau_alpha</text>
<text text-anchor="middle" x="165.5" y="-323.24" font-family="Times,serif" font-size="14.00">~</text>
<text text-anchor="middle" x="165.5" y="-306.74" font-family="Times,serif" font-size="14.00">Gamma</text>
</g>
<!-- tau_alpha&#45;&gt;alpha -->
<g id="edge3" class="edge">
<title>tau_alpha&#45;&gt;alpha</title>
<path fill="none" stroke="black" d="M167.23,-287.28C167.57,-279.5 167.93,-271.25 168.28,-263.16"/>
<polygon fill="black" stroke="black" points="171.76,-263.57 168.7,-253.43 164.77,-263.27 171.76,-263.57"/>
</g>
<!-- mu_beta -->
<g id="node4" class="node">
<title>mu_beta</title>
<ellipse fill="none" stroke="black" cx="276.5" cy="-328.29" rx="44.72" ry="40.66"/>
<text text-anchor="middle" x="276.5" y="-339.74" font-family="Times,serif" font-size="14.00">mu_beta</text>
<text text-anchor="middle" x="276.5" y="-323.24" font-family="Times,serif" font-size="14.00">~</text>
<text text-anchor="middle" x="276.5" y="-306.74" font-family="Times,serif" font-size="14.00">Normal</text>
</g>
<!-- beta -->
<g id="node8" class="node">
<title>beta</title>
<ellipse fill="none" stroke="black" cx="270.5" cy="-210.98" rx="41.01" ry="40.66"/>
<text text-anchor="middle" x="270.5" y="-222.43" font-family="Times,serif" font-size="14.00">beta</text>
<text text-anchor="middle" x="270.5" y="-205.93" font-family="Times,serif" font-size="14.00">~</text>
<text text-anchor="middle" x="270.5" y="-189.43" font-family="Times,serif" font-size="14.00">Normal</text>
</g>
<!-- mu_beta&#45;&gt;beta -->
<g id="edge4" class="edge">
<title>mu_beta&#45;&gt;beta</title>
<path fill="none" stroke="black" d="M274.42,-287.28C274.01,-279.5 273.58,-271.25 273.16,-263.16"/>
<polygon fill="black" stroke="black" points="276.67,-263.23 272.65,-253.43 269.68,-263.59 276.67,-263.23"/>
</g>
<!-- tau_beta -->
<g id="node5" class="node">
<title>tau_beta</title>
<ellipse fill="none" stroke="black" cx="382.5" cy="-328.29" rx="43.66" ry="40.66"/>
<text text-anchor="middle" x="382.5" y="-339.74" font-family="Times,serif" font-size="14.00">tau_beta</text>
<text text-anchor="middle" x="382.5" y="-323.24" font-family="Times,serif" font-size="14.00">~</text>
<text text-anchor="middle" x="382.5" y="-306.74" font-family="Times,serif" font-size="14.00">Gamma</text>
</g>
<!-- tau_beta&#45;&gt;beta -->
<g id="edge5" class="edge">
<title>tau_beta&#45;&gt;beta</title>
<path fill="none" stroke="black" d="M353.65,-297.6C339.19,-282.71 321.55,-264.54 306.23,-248.77"/>
<polygon fill="black" stroke="black" points="309,-246.6 299.52,-241.86 303.98,-251.47 309,-246.6"/>
</g>
<!-- tau -->
<g id="node6" class="node">
<title>tau</title>
<ellipse fill="none" stroke="black" cx="373.5" cy="-210.98" rx="42.6" ry="40.66"/>
<text text-anchor="middle" x="373.5" y="-222.43" font-family="Times,serif" font-size="14.00">tau</text>
<text text-anchor="middle" x="373.5" y="-205.93" font-family="Times,serif" font-size="14.00">~</text>
<text text-anchor="middle" x="373.5" y="-189.43" font-family="Times,serif" font-size="14.00">Gamma</text>
</g>
<!-- tau&#45;&gt;sigma -->
<g id="edge1" class="edge">
<title>tau&#45;&gt;sigma</title>
<path fill="none" stroke="black" d="M373.5,-169.88C373.5,-154.48 373.5,-136.93 373.5,-121.59"/>
<polygon fill="black" stroke="black" points="377,-121.88 373.5,-111.88 370,-121.88 377,-121.88"/>
</g>
<!-- y -->
<g id="node9" class="node">
<title>y</title>
<ellipse fill="lightgrey" stroke="black" cx="269.5" cy="-81.16" rx="41.01" ry="40.66"/>
<text text-anchor="middle" x="269.5" y="-92.61" font-family="Times,serif" font-size="14.00">y</text>
<text text-anchor="middle" x="269.5" y="-76.11" font-family="Times,serif" font-size="14.00">~</text>
<text text-anchor="middle" x="269.5" y="-59.61" font-family="Times,serif" font-size="14.00">Normal</text>
</g>
<!-- tau&#45;&gt;y -->
<g id="edge7" class="edge">
<title>tau&#45;&gt;y</title>
<path fill="none" stroke="black" d="M351.46,-175.73C343.12,-163.45 333.27,-149.71 323.5,-137.82 318.09,-131.24 312.05,-124.51 306.03,-118.11"/>
<polygon fill="black" stroke="black" points="308.95,-116.1 299.51,-111.3 303.9,-120.94 308.95,-116.1"/>
</g>
<!-- alpha&#45;&gt;y -->
<g id="edge6" class="edge">
<title>alpha&#45;&gt;y</title>
<path fill="none" stroke="black" d="M192.61,-176.35C201.03,-164 210.92,-150.06 220.5,-137.82 225.03,-132.03 229.98,-126.05 234.93,-120.26"/>
<polygon fill="black" stroke="black" points="237.24,-122.94 241.15,-113.09 231.95,-118.35 237.24,-122.94"/>
</g>
<!-- beta&#45;&gt;y -->
<g id="edge8" class="edge">
<title>beta&#45;&gt;y</title>
<path fill="none" stroke="black" d="M270.18,-169.88C270.09,-158.34 269.99,-145.6 269.9,-133.48"/>
<polygon fill="black" stroke="black" points="273.4,-133.59 269.82,-123.62 266.4,-133.65 273.4,-133.59"/>
</g>
</g>
</svg>