<?xml version="1.0" encoding="UTF-8" standalone="no"?>
<!DOCTYPE svg PUBLIC "-//W3C//DTD SVG 1.1//EN"
 "http://www.w3.org/Graphics/SVG/1.1/DTD/svg11.dtd">
<!-- Generated by graphviz version 12.0.0 (0)
 -->
<!-- Pages: 1 -->
<svg width="227pt" height="247pt"
 viewBox="0.00 0.00 226.58 247.13" xmlns="http://www.w3.org/2000/svg" xmlns:xlink="http://www.w3.org/1999/xlink">
<g id="graph0" class="graph" transform="scale(1 1) rotate(0) translate(4 243.13)">
<polygon fill="white" stroke="none" points="-4,4 -4,-243.13 222.58,-243.13 222.58,4 -4,4"/>
<g id="clust1" class="cluster">
<title>cluster20</title>
<path fill="none" stroke="black" d="M26.45,-8C26.45,-8 100.45,-8 100.45,-8 106.45,-8 112.45,-14 112.45,-20 112.45,-20 112.45,-117.82 112.45,-117.82 112.45,-123.82 106.45,-129.82 100.45,-129.82 100.45,-129.82 26.45,-129.82 26.45,-129.82 20.45,-129.82 14.45,-123.82 14.45,-117.82 14.45,-117.82 14.45,-20 14.45,-20 14.45,-14 20.45,-8 26.45,-8"/>
<text text-anchor="middle" x="97.7" y="-15.2" font-family="Times,serif" font-size="14.00">20</text>
</g>
<!-- sigma -->
<g id="node1" class="node">
<title>sigma</title>
<ellipse fill="none" stroke="black" cx="57.45" cy="-198.48" rx="57.45" ry="40.66"/>
<text text-anchor="middle" x="57.45" y="-209.93" font-family="Times,serif" font-size="14.00">sigma</text>
<text text-anchor="middle" x="57.45" y="-193.43" font-family="Times,serif" font-size="14.00">~</text>
<text text-anchor="middle" x="57.45" y="-176.93" font-family="Times,serif" font-size="14.00">Exponential</text>
</g>
<!-- diff -->
<g id="node4" class="node">
<title>diff</title>
<ellipse fill="lightgrey" stroke="black" cx="63.45" cy="-81.16" rx="41.01" ry="40.66"/>
<text text-anchor="middle" x="63.45" y="-92.61" font-family="Times,serif" font-size="14.00">diff</text>
<text text-anchor="middle" x="63.45" y="-76.11" font-family="Times,serif" font-size="14.00">~</text>
<text text-anchor="middle" x="63.45" y="-59.61" font-family="Times,serif" font-size="14.00">Normal</text>
</g>
<!-- sigma&#45;&gt;diff -->
<g id="edge2" class="edge">
<title>sigma&#45;&gt;diff</title>
<path fill="none" stroke="black" d="M59.53,-157.47C59.94,-149.69 60.37,-141.43 60.79,-133.34"/>
<polygon fill="black" stroke="black" points="64.27,-133.78 61.3,-123.61 57.28,-133.41 64.27,-133.78"/>
</g>
<!-- mu -->
<g id="node2" class="node">
<title>mu</title>
<ellipse fill="none" stroke="black" cx="173.45" cy="-198.48" rx="41.01" ry="40.66"/>
<text text-anchor="middle" x="173.45" y="-209.93" font-family="Times,serif" font-size="14.00">mu</text>
<text text-anchor="middle" x="173.45" y="-193.43" font-family="Times,serif" font-size="14.00">~</text>
<text text-anchor="middle" x="173.45" y="-176.93" font-family="Times,serif" font-size="14.00">Normal</text>
</g>
<!-- ph1 -->
<g id="node3" class="node">
<title>ph1</title>
<polygon fill="none" stroke="black" points="218.58,-109.91 128.33,-109.91 128.33,-52.41 218.58,-52.41 218.58,-109.91"/>
<text text-anchor="middle" x="173.45" y="-92.61" font-family="Times,serif" font-size="14.00">ph1</text>
<text text-anchor="middle" x="173.45" y="-76.11" font-family="Times,serif" font-size="14.00">~</text>
<text text-anchor="middle" x="173.45" y="-59.61" font-family="Times,serif" font-size="14.00">Deterministic</text>
</g>
<!-- mu&#45;&gt;ph1 -->
<g id="edge1" class="edge">
<title>mu&#45;&gt;ph1</title>
<path fill="none" stroke="black" d="M173.45,-157.47C173.45,-145.76 173.45,-132.97 173.45,-121.32"/>
<polygon fill="black" stroke="black" points="176.95,-121.63 173.45,-111.63 169.95,-121.63 176.95,-121.63"/>
</g>
<!-- mu&#45;&gt;diff -->
<g id="edge3" class="edge">
<title>mu&#45;&gt;diff</title>
<path fill="none" stroke="black" d="M145.69,-168.38C131.49,-153.49 114.05,-135.21 98.89,-119.31"/>
<polygon fill="black" stroke="black" points="101.68,-117.16 92.25,-112.34 96.62,-122 101.68,-117.16"/>
</g>
</g>
</svg>