<?xml version="1.0" encoding="UTF-8" standalone="no"?>
<!DOCTYPE svg PUBLIC "-//W3C//DTD SVG 1.1//EN"
 "http://www.w3.org/Graphics/SVG/1.1/DTD/svg11.dtd">
<!-- Generated by graphviz version 12.0.0 (0)
 -->
<!-- Pages: 1 -->
<svg width="440pt" height="803pt"
 viewBox="0.00 0.00 440.00 803.09" xmlns="http://www.w3.org/2000/svg" xmlns:xlink="http://www.w3.org/1999/xlink">
<g id="graph0" class="graph" transform="scale(1 1) rotate(0) translate(4 799.09)">
<polygon fill="white" stroke="none" points="-4,4 -4,-799.09 436,-799.09 436,4 -4,4"/>
<g id="clust1" class="cluster">
<title>cluster5</title>
<path fill="none" stroke="black" d="M240,-470.45C240,-470.45 322,-470.45 322,-470.45 328,-470.45 334,-476.45 334,-482.45 334,-482.45 334,-556.45 334,-556.45 334,-562.45 328,-568.45 322,-568.45 322,-568.45 240,-568.45 240,-568.45 234,-568.45 228,-562.45 228,-556.45 228,-556.45 228,-482.45 228,-482.45 228,-476.45 234,-470.45 240,-470.45"/>
<text text-anchor="middle" x="322.62" y="-477.65" font-family="Times,serif" font-size="14.00">5</text>
</g>
<g id="clust2" class="cluster">
<title>cluster4</title>
<path fill="none" stroke="black" d="M20,-340.63C20,-340.63 190,-340.63 190,-340.63 196,-340.63 202,-346.63 202,-352.63 202,-352.63 202,-450.45 202,-450.45 202,-456.45 196,-462.45 190,-462.45 190,-462.45 20,-462.45 20,-462.45 14,-462.45 8,-456.45 8,-450.45 8,-450.45 8,-352.63 8,-352.63 8,-346.63 14,-340.63 20,-340.63"/>
<text text-anchor="middle" x="190.62" y="-347.83" font-family="Times,serif" font-size="14.00">4</text>
</g>
<g id="clust3" class="cluster">
<title>cluster1</title>
<path fill="none" stroke="black" d="M222,-340.63C222,-340.63 412,-340.63 412,-340.63 418,-340.63 424,-346.63 424,-352.63 424,-352.63 424,-450.45 424,-450.45 424,-456.45 418,-462.45 412,-462.45 412,-462.45 222,-462.45 222,-462.45 216,-462.45 210,-456.45 210,-450.45 210,-450.45 210,-352.63 210,-352.63 210,-346.63 216,-340.63 222,-340.63"/>
<text text-anchor="middle" x="412.62" y="-347.83" font-family="Times,serif" font-size="14.00">1</text>
</g>
<g id="clust4" class="cluster">
<title>cluster1 x 5</title>
<path fill="none" stroke="black" d="M168,-8C168,-8 254,-8 254,-8 260,-8 266,-14 266,-20 266,-20 266,-316.73 266,-316.73 266,-322.73 260,-328.73 254,-328.73 254,-328.73 168,-328.73 168,-328.73 162,-328.73 156,-322.73 156,-316.73 156,-316.73 156,-20 156,-20 156,-14 162,-8 168,-8"/>
<text text-anchor="middle" x="244.12" y="-15.2" font-family="Times,serif" font-size="14.00">1 x 5</text>
</g>
<!-- beta -->
<g id="node1" class="node">
<title>beta</title>
<ellipse fill="none" stroke="black" cx="335" cy="-637.11" rx="27.22" ry="40.66"/>
<text text-anchor="middle" x="335" y="-648.56" font-family="Times,serif" font-size="14.00">beta</text>
<text text-anchor="middle" x="335" y="-632.06" font-family="Times,serif" font-size="14.00">~</text>
<text text-anchor="middle" x="335" y="-615.56" font-family="Times,serif" font-size="14.00">Flat</text>
</g>
<!-- mu -->
<g id="node7" class="node">
<title>mu</title>
<polygon fill="none" stroke="black" points="326.12,-560.45 235.88,-560.45 235.88,-502.95 326.12,-502.95 326.12,-560.45"/>
<text text-anchor="middle" x="281" y="-543.15" font-family="Times,serif" font-size="14.00">mu</text>
<text text-anchor="middle" x="281" y="-526.65" font-family="Times,serif" font-size="14.00">~</text>
<text text-anchor="middle" x="281" y="-510.15" font-family="Times,serif" font-size="14.00">Deterministic</text>
</g>
<!-- beta&#45;&gt;mu -->
<g id="edge3" class="edge">
<title>beta&#45;&gt;mu</title>
<path fill="none" stroke="black" d="M318.36,-604.24C312.86,-593.72 306.69,-581.9 300.97,-570.95"/>
<polygon fill="black" stroke="black" points="304.1,-569.37 296.37,-562.13 297.89,-572.61 304.1,-569.37"/>
</g>
<!-- a -->
<g id="node2" class="node">
<title>a</title>
<ellipse fill="none" stroke="black" cx="317" cy="-291.98" rx="42.6" ry="40.66"/>
<text text-anchor="middle" x="317" y="-303.43" font-family="Times,serif" font-size="14.00">a</text>
<text text-anchor="middle" x="317" y="-286.93" font-family="Times,serif" font-size="14.00">~</text>
<text text-anchor="middle" x="317" y="-270.43" font-family="Times,serif" font-size="14.00">Logistic</text>
</g>
<!-- p -->
<g id="node12" class="node">
<title>p</title>
<polygon fill="none" stroke="black" points="256.12,-215.32 165.88,-215.32 165.88,-157.82 256.12,-157.82 256.12,-215.32"/>
<text text-anchor="middle" x="211" y="-198.02" font-family="Times,serif" font-size="14.00">p</text>
<text text-anchor="middle" x="211" y="-181.52" font-family="Times,serif" font-size="14.00">~</text>
<text text-anchor="middle" x="211" y="-165.02" font-family="Times,serif" font-size="14.00">Deterministic</text>
</g>
<!-- a&#45;&gt;p -->
<g id="edge11" class="edge">
<title>a&#45;&gt;p</title>
<path fill="none" stroke="black" d="M287.47,-262.17C275.09,-250.1 260.58,-235.93 247.53,-223.21"/>
<polygon fill="black" stroke="black" points="250.32,-221.04 240.72,-216.56 245.43,-226.05 250.32,-221.04"/>
</g>
<!-- sigma2 -->
<g id="node3" class="node">
<title>sigma2</title>
<polygon fill="none" stroke="black" points="186.12,-665.86 95.88,-665.86 95.88,-608.36 186.12,-608.36 186.12,-665.86"/>
<text text-anchor="middle" x="141" y="-648.56" font-family="Times,serif" font-size="14.00">sigma2</text>
<text text-anchor="middle" x="141" y="-632.06" font-family="Times,serif" font-size="14.00">~</text>
<text text-anchor="middle" x="141" y="-615.56" font-family="Times,serif" font-size="14.00">Deterministic</text>
</g>
<!-- tau -->
<g id="node6" class="node">
<title>tau</title>
<polygon fill="none" stroke="black" points="186.12,-560.45 95.88,-560.45 95.88,-502.95 186.12,-502.95 186.12,-560.45"/>
<text text-anchor="middle" x="141" y="-543.15" font-family="Times,serif" font-size="14.00">tau</text>
<text text-anchor="middle" x="141" y="-526.65" font-family="Times,serif" font-size="14.00">~</text>
<text text-anchor="middle" x="141" y="-510.15" font-family="Times,serif" font-size="14.00">Deterministic</text>
</g>
<!-- sigma2&#45;&gt;tau -->
<g id="edge2" class="edge">
<title>sigma2&#45;&gt;tau</title>
<path fill="none" stroke="black" d="M141,-608.13C141,-596.98 141,-583.95 141,-571.88"/>
<polygon fill="black" stroke="black" points="144.5,-572.22 141,-562.22 137.5,-572.22 144.5,-572.22"/>
</g>
<!-- alpha -->
<g id="node4" class="node">
<title>alpha</title>
<ellipse fill="none" stroke="black" cx="258" cy="-637.11" rx="32" ry="40.66"/>
<text text-anchor="middle" x="258" y="-648.56" font-family="Times,serif" font-size="14.00">alpha</text>
<text text-anchor="middle" x="258" y="-632.06" font-family="Times,serif" font-size="14.00">~</text>
<text text-anchor="middle" x="258" y="-615.56" font-family="Times,serif" font-size="14.00">Flat</text>
</g>
<!-- alpha&#45;&gt;mu -->
<g id="edge4" class="edge">
<title>alpha&#45;&gt;mu</title>
<path fill="none" stroke="black" d="M266.56,-597.6C268.43,-589.24 270.4,-580.37 272.27,-571.97"/>
<polygon fill="black" stroke="black" points="275.65,-572.9 274.4,-562.38 268.81,-571.38 275.65,-572.9"/>
</g>
<!-- log_sigma -->
<g id="node5" class="node">
<title>log_sigma</title>
<ellipse fill="none" stroke="black" cx="141" cy="-754.43" rx="51.62" ry="40.66"/>
<text text-anchor="middle" x="141" y="-765.88" font-family="Times,serif" font-size="14.00">log_sigma</text>
<text text-anchor="middle" x="141" y="-749.38" font-family="Times,serif" font-size="14.00">~</text>
<text text-anchor="middle" x="141" y="-732.88" font-family="Times,serif" font-size="14.00">Flat</text>
</g>
<!-- log_sigma&#45;&gt;sigma2 -->
<g id="edge1" class="edge">
<title>log_sigma&#45;&gt;sigma2</title>
<path fill="none" stroke="black" d="M141,-713.42C141,-701.71 141,-688.93 141,-677.27"/>
<polygon fill="black" stroke="black" points="144.5,-677.59 141,-667.59 137.5,-677.59 144.5,-677.59"/>
</g>
<!-- likelihood_observed -->
<g id="node8" class="node">
<title>likelihood_observed</title>
<ellipse fill="lightgrey" stroke="black" cx="105" cy="-413.79" rx="89.27" ry="40.66"/>
<text text-anchor="middle" x="105" y="-425.24" font-family="Times,serif" font-size="14.00">likelihood_observed</text>
<text text-anchor="middle" x="105" y="-408.74" font-family="Times,serif" font-size="14.00">~</text>
<text text-anchor="middle" x="105" y="-392.24" font-family="Times,serif" font-size="14.00">Normal</text>
</g>
<!-- tau&#45;&gt;likelihood_observed -->
<g id="edge6" class="edge">
<title>tau&#45;&gt;likelihood_observed</title>
<path fill="none" stroke="black" d="M132.29,-502.64C128.77,-491.34 124.61,-477.94 120.61,-465.06"/>
<polygon fill="black" stroke="black" points="124.06,-464.38 117.76,-455.86 117.38,-466.45 124.06,-464.38"/>
</g>
<!-- likelihood_unobserved -->
<g id="node9" class="node">
<title>likelihood_unobserved</title>
<ellipse fill="none" stroke="black" cx="317" cy="-413.79" rx="98.82" ry="40.66"/>
<text text-anchor="middle" x="317" y="-425.24" font-family="Times,serif" font-size="14.00">likelihood_unobserved</text>
<text text-anchor="middle" x="317" y="-408.74" font-family="Times,serif" font-size="14.00">~</text>
<text text-anchor="middle" x="317" y="-392.24" font-family="Times,serif" font-size="14.00">Normal</text>
</g>
<!-- tau&#45;&gt;likelihood_unobserved -->
<g id="edge8" class="edge">
<title>tau&#45;&gt;likelihood_unobserved</title>
<path fill="none" stroke="black" d="M178.1,-502.69C192.27,-492.28 208.7,-480.56 224,-470.45 232.53,-464.82 241.63,-459.07 250.68,-453.5"/>
<polygon fill="black" stroke="black" points="252.43,-456.54 259.15,-448.34 248.79,-450.56 252.43,-456.54"/>
</g>
<!-- mu&#45;&gt;likelihood_observed -->
<g id="edge5" class="edge">
<title>mu&#45;&gt;likelihood_observed</title>
<path fill="none" stroke="black" d="M241.94,-502.63C227.34,-492.32 210.53,-480.68 195,-470.45 186.23,-464.68 176.89,-458.71 167.68,-452.91"/>
<polygon fill="black" stroke="black" points="169.76,-450.09 159.43,-447.76 166.06,-456.03 169.76,-450.09"/>
</g>
<!-- mu&#45;&gt;likelihood_unobserved -->
<g id="edge7" class="edge">
<title>mu&#45;&gt;likelihood_unobserved</title>
<path fill="none" stroke="black" d="M289.71,-502.64C293.23,-491.34 297.39,-477.94 301.39,-465.06"/>
<polygon fill="black" stroke="black" points="304.62,-466.45 304.24,-455.86 297.94,-464.38 304.62,-466.45"/>
</g>
<!-- likelihood -->
<g id="node11" class="node">
<title>likelihood</title>
<polygon fill="none" stroke="black" points="256.12,-320.73 165.88,-320.73 165.88,-263.23 256.12,-263.23 256.12,-320.73"/>
<text text-anchor="middle" x="211" y="-303.43" font-family="Times,serif" font-size="14.00">likelihood</text>
<text text-anchor="middle" x="211" y="-286.93" font-family="Times,serif" font-size="14.00">~</text>
<text text-anchor="middle" x="211" y="-270.43" font-family="Times,serif" font-size="14.00">Deterministic</text>
</g>
<!-- likelihood_observed&#45;&gt;likelihood -->
<g id="edge10" class="edge">
<title>likelihood_observed&#45;&gt;likelihood</title>
<path fill="none" stroke="black" d="M137.96,-375.54C150.96,-360.84 165.86,-344 178.79,-329.39"/>
<polygon fill="black" stroke="black" points="181.14,-332.01 185.14,-322.2 175.9,-327.37 181.14,-332.01"/>
</g>
<!-- likelihood_unobserved&#45;&gt;likelihood -->
<g id="edge9" class="edge">
<title>likelihood_unobserved&#45;&gt;likelihood</title>
<path fill="none" stroke="black" d="M283.75,-375.21C270.76,-360.52 255.92,-343.75 243.04,-329.2"/>
<polygon fill="black" stroke="black" points="245.97,-327.22 236.72,-322.05 240.73,-331.86 245.97,-327.22"/>
</g>
<!-- missing -->
<g id="node10" class="node">
<title>missing</title>
<ellipse fill="lightgrey" stroke="black" cx="211" cy="-81.16" rx="47.38" ry="40.66"/>
<text text-anchor="middle" x="211" y="-92.61" font-family="Times,serif" font-size="14.00">missing</text>
<text text-anchor="middle" x="211" y="-76.11" font-family="Times,serif" font-size="14.00">~</text>
<text text-anchor="middle" x="211" y="-59.61" font-family="Times,serif" font-size="14.00">Bernoulli</text>
</g>
<!-- likelihood&#45;&gt;p -->
<g id="edge12" class="edge">
<title>likelihood&#45;&gt;p</title>
<path fill="none" stroke="black" d="M211,-262.99C211,-251.84 211,-238.81 211,-226.75"/>
<polygon fill="black" stroke="black" points="214.5,-227.09 211,-217.09 207.5,-227.09 214.5,-227.09"/>
</g>
<!-- p&#45;&gt;missing -->
<g id="edge13" class="edge">
<title>p&#45;&gt;missing</title>
<path fill="none" stroke="black" d="M211,-157.58C211,-150.1 211,-141.77 211,-133.45"/>
<polygon fill="black" stroke="black" points="214.5,-133.71 211,-123.71 207.5,-133.71 214.5,-133.71"/>
</g>
</g>
</svg>