<?xml version="1.0" encoding="UTF-8" standalone="no"?>
<!DOCTYPE svg PUBLIC "-//W3C//DTD SVG 1.1//EN"
 "http://www.w3.org/Graphics/SVG/1.1/DTD/svg11.dtd">
<!-- Generated by graphviz version 7.1.0 (0)
 -->
<!-- Pages: 1 -->
<svg width="438pt" height="355pt"
 viewBox="0.00 0.00 438.05 354.86" xmlns="http://www.w3.org/2000/svg" xmlns:xlink="http://www.w3.org/1999/xlink">
<g id="graph0" class="graph" transform="scale(1 1) rotate(0) translate(4 350.86)">
<polygon fill="white" stroke="none" points="-4,4 -4,-350.86 434.05,-350.86 434.05,4 -4,4"/>
<g id="clust1" class="cluster">
<title>cluster30 x 1</title>
<path fill="none" stroke="black" d="M117.84,-129.95C117.84,-129.95 294.84,-129.95 294.84,-129.95 300.84,-129.95 306.84,-135.95 306.84,-141.95 306.84,-141.95 306.84,-231.91 306.84,-231.91 306.84,-237.91 300.84,-243.91 294.84,-243.91 294.84,-243.91 117.84,-243.91 117.84,-243.91 111.84,-243.91 105.84,-237.91 105.84,-231.91 105.84,-231.91 105.84,-141.95 105.84,-141.95 105.84,-135.95 111.84,-129.95 117.84,-129.95"/>
<text text-anchor="middle" x="281.34" y="-137.75" font-family="Times,serif" font-size="14.00">30 x 1</text>
</g>
<g id="clust2" class="cluster">
<title>cluster30 x 5</title>
<path fill="none" stroke="black" d="M217.84,-8C217.84,-8 293.84,-8 293.84,-8 299.84,-8 305.84,-14 305.84,-20 305.84,-20 305.84,-109.95 305.84,-109.95 305.84,-115.95 299.84,-121.95 293.84,-121.95 293.84,-121.95 217.84,-121.95 217.84,-121.95 211.84,-121.95 205.84,-115.95 205.84,-109.95 205.84,-109.95 205.84,-20 205.84,-20 205.84,-14 211.84,-8 217.84,-8"/>
<text text-anchor="middle" x="280.34" y="-15.8" font-family="Times,serif" font-size="14.00">30 x 5</text>
</g>
<!-- tau_beta -->
<g id="node1" class="node">
<title>tau_beta</title>
<ellipse fill="none" stroke="black" cx="43.84" cy="-309.38" rx="43.68" ry="37.45"/>
<text text-anchor="middle" x="43.84" y="-320.68" font-family="Times,serif" font-size="14.00">tau_beta</text>
<text text-anchor="middle" x="43.84" y="-305.68" font-family="Times,serif" font-size="14.00">~</text>
<text text-anchor="middle" x="43.84" y="-290.68" font-family="Times,serif" font-size="14.00">Gamma</text>
</g>
<!-- beta -->
<g id="node8" class="node">
<title>beta</title>
<ellipse fill="none" stroke="black" cx="155.84" cy="-198.43" rx="41.94" ry="37.45"/>
<text text-anchor="middle" x="155.84" y="-209.73" font-family="Times,serif" font-size="14.00">beta</text>
<text text-anchor="middle" x="155.84" y="-194.73" font-family="Times,serif" font-size="14.00">~</text>
<text text-anchor="middle" x="155.84" y="-179.73" font-family="Times,serif" font-size="14.00">Normal</text>
</g>
<!-- tau_beta&#45;&gt;beta -->
<g id="edge4" class="edge">
<title>tau_beta&#45;&gt;beta</title>
<path fill="none" stroke="black" d="M72.39,-280.61C86.72,-266.67 104.23,-249.64 119.51,-234.78"/>
<polygon fill="black" stroke="black" points="121.92,-237.31 126.64,-227.83 117.04,-232.3 121.92,-237.31"/>
</g>
<!-- sigma -->
<g id="node2" class="node">
<title>sigma</title>
<polygon fill="none" stroke="black" points="406.34,-102.98 315.34,-102.98 315.34,-49.98 406.34,-49.98 406.34,-102.98"/>
<text text-anchor="middle" x="360.84" y="-87.78" font-family="Times,serif" font-size="14.00">sigma</text>
<text text-anchor="middle" x="360.84" y="-72.78" font-family="Times,serif" font-size="14.00">~</text>
<text text-anchor="middle" x="360.84" y="-57.78" font-family="Times,serif" font-size="14.00">Deterministic</text>
</g>
<!-- tau_alpha -->
<g id="node3" class="node">
<title>tau_alpha</title>
<ellipse fill="none" stroke="black" cx="262.84" cy="-309.38" rx="48.58" ry="37.45"/>
<text text-anchor="middle" x="262.84" y="-320.68" font-family="Times,serif" font-size="14.00">tau_alpha</text>
<text text-anchor="middle" x="262.84" y="-305.68" font-family="Times,serif" font-size="14.00">~</text>
<text text-anchor="middle" x="262.84" y="-290.68" font-family="Times,serif" font-size="14.00">Gamma</text>
</g>
<!-- alpha -->
<g id="node7" class="node">
<title>alpha</title>
<ellipse fill="none" stroke="black" cx="256.84" cy="-198.43" rx="41.94" ry="37.45"/>
<text text-anchor="middle" x="256.84" y="-209.73" font-family="Times,serif" font-size="14.00">alpha</text>
<text text-anchor="middle" x="256.84" y="-194.73" font-family="Times,serif" font-size="14.00">~</text>
<text text-anchor="middle" x="256.84" y="-179.73" font-family="Times,serif" font-size="14.00">Normal</text>
</g>
<!-- tau_alpha&#45;&gt;alpha -->
<g id="edge3" class="edge">
<title>tau_alpha&#45;&gt;alpha</title>
<path fill="none" stroke="black" d="M260.81,-271.5C260.39,-263.86 259.94,-255.72 259.5,-247.75"/>
<polygon fill="black" stroke="black" points="263,-247.58 258.95,-237.79 256.01,-247.97 263,-247.58"/>
</g>
<!-- tau -->
<g id="node4" class="node">
<title>tau</title>
<ellipse fill="none" stroke="black" cx="360.84" cy="-198.43" rx="43.27" ry="37.45"/>
<text text-anchor="middle" x="360.84" y="-209.73" font-family="Times,serif" font-size="14.00">tau</text>
<text text-anchor="middle" x="360.84" y="-194.73" font-family="Times,serif" font-size="14.00">~</text>
<text text-anchor="middle" x="360.84" y="-179.73" font-family="Times,serif" font-size="14.00">Gamma</text>
</g>
<!-- tau&#45;&gt;sigma -->
<g id="edge1" class="edge">
<title>tau&#45;&gt;sigma</title>
<path fill="none" stroke="black" d="M360.84,-160.79C360.84,-146.11 360.84,-129.22 360.84,-114.5"/>
<polygon fill="black" stroke="black" points="364.34,-114.76 360.84,-104.76 357.34,-114.76 364.34,-114.76"/>
</g>
<!-- y -->
<g id="node9" class="node">
<title>y</title>
<ellipse fill="lightgrey" stroke="black" cx="255.84" cy="-76.48" rx="41.94" ry="37.45"/>
<text text-anchor="middle" x="255.84" y="-87.78" font-family="Times,serif" font-size="14.00">y</text>
<text text-anchor="middle" x="255.84" y="-72.78" font-family="Times,serif" font-size="14.00">~</text>
<text text-anchor="middle" x="255.84" y="-57.78" font-family="Times,serif" font-size="14.00">Normal</text>
</g>
<!-- tau&#45;&gt;y -->
<g id="edge6" class="edge">
<title>tau&#45;&gt;y</title>
<path fill="none" stroke="black" d="M339.01,-165.66C330.62,-154.08 320.68,-141.1 310.84,-129.95 305.38,-123.76 299.3,-117.47 293.23,-111.48"/>
<polygon fill="black" stroke="black" points="295.74,-109.04 286.11,-104.61 290.88,-114.07 295.74,-109.04"/>
</g>
<!-- mu_beta -->
<g id="node5" class="node">
<title>mu_beta</title>
<ellipse fill="none" stroke="black" cx="150.84" cy="-309.38" rx="45.01" ry="37.45"/>
<text text-anchor="middle" x="150.84" y="-320.68" font-family="Times,serif" font-size="14.00">mu_beta</text>
<text text-anchor="middle" x="150.84" y="-305.68" font-family="Times,serif" font-size="14.00">~</text>
<text text-anchor="middle" x="150.84" y="-290.68" font-family="Times,serif" font-size="14.00">Normal</text>
</g>
<!-- mu_beta&#45;&gt;beta -->
<g id="edge5" class="edge">
<title>mu_beta&#45;&gt;beta</title>
<path fill="none" stroke="black" d="M152.53,-271.5C152.88,-263.86 153.26,-255.72 153.62,-247.75"/>
<polygon fill="black" stroke="black" points="157.12,-247.94 154.08,-237.79 150.13,-247.62 157.12,-247.94"/>
</g>
<!-- mu_alpha -->
<g id="node6" class="node">
<title>mu_alpha</title>
<ellipse fill="none" stroke="black" cx="379.84" cy="-309.38" rx="50.41" ry="37.45"/>
<text text-anchor="middle" x="379.84" y="-320.68" font-family="Times,serif" font-size="14.00">mu_alpha</text>
<text text-anchor="middle" x="379.84" y="-305.68" font-family="Times,serif" font-size="14.00">~</text>
<text text-anchor="middle" x="379.84" y="-290.68" font-family="Times,serif" font-size="14.00">Normal</text>
</g>
<!-- mu_alpha&#45;&gt;alpha -->
<g id="edge2" class="edge">
<title>mu_alpha&#45;&gt;alpha</title>
<path fill="none" stroke="black" d="M347.84,-280.04C331.6,-265.65 311.76,-248.07 294.75,-233.01"/>
<polygon fill="black" stroke="black" points="297.09,-230.41 287.28,-226.39 292.45,-235.65 297.09,-230.41"/>
</g>
<!-- alpha&#45;&gt;y -->
<g id="edge7" class="edge">
<title>alpha&#45;&gt;y</title>
<path fill="none" stroke="black" d="M256.54,-160.79C256.44,-149.73 256.34,-137.42 256.24,-125.72"/>
<polygon fill="black" stroke="black" points="259.74,-125.79 256.16,-115.82 252.74,-125.85 259.74,-125.79"/>
</g>
<!-- beta&#45;&gt;y -->
<g id="edge8" class="edge">
<title>beta&#45;&gt;y</title>
<path fill="none" stroke="black" d="M177.71,-166.25C186.19,-154.61 196.17,-141.44 205.84,-129.95 210.41,-124.52 215.4,-118.93 220.4,-113.52"/>
<polygon fill="black" stroke="black" points="222.87,-116 227.16,-106.31 217.76,-111.21 222.87,-116"/>
</g>
</g>
</svg>