<?xml version="1.0" encoding="UTF-8" standalone="no"?>
<!DOCTYPE svg PUBLIC "-//W3C//DTD SVG 1.1//EN"
 "http://www.w3.org/Graphics/SVG/1.1/DTD/svg11.dtd">
<!-- Generated by graphviz version 12.0.0 (0)
 -->
<!-- Pages: 1 -->
<svg width="296pt" height="369pt"
 viewBox="0.00 0.00 296.00 369.13" xmlns="http://www.w3.org/2000/svg" xmlns:xlink="http://www.w3.org/1999/xlink">
<g id="graph0" class="graph" transform="scale(1 1) rotate(0) translate(4 365.13)">
<polygon fill="white" stroke="none" points="-4,4 -4,-365.13 292,-365.13 292,4 -4,4"/>
<g id="clust1" class="cluster">
<title>cluster81 x 10</title>
<path fill="none" stroke="black" d="M20,-243.23C20,-243.23 68,-243.23 68,-243.23 74,-243.23 80,-249.23 80,-255.23 80,-255.23 80,-329.23 80,-329.23 80,-335.23 74,-341.23 68,-341.23 68,-341.23 20,-341.23 20,-341.23 14,-341.23 8,-335.23 8,-329.23 8,-329.23 8,-255.23 8,-255.23 8,-249.23 14,-243.23 20,-243.23"/>
<text text-anchor="middle" x="51.38" y="-250.43" font-family="Times,serif" font-size="14.00">81 x 10</text>
</g>
<g id="clust2" class="cluster">
<title>cluster81</title>
<path fill="none" stroke="black" d="M88,-8C88,-8 174,-8 174,-8 180,-8 186,-14 186,-20 186,-20 186,-211.32 186,-211.32 186,-217.32 180,-223.32 174,-223.32 174,-223.32 88,-223.32 88,-223.32 82,-223.32 76,-217.32 76,-211.32 76,-211.32 76,-20 76,-20 76,-14 82,-8 88,-8"/>
<text text-anchor="middle" x="171.25" y="-15.2" font-family="Times,serif" font-size="14.00">81</text>
</g>
<g id="clust3" class="cluster">
<title>cluster10</title>
<path fill="none" stroke="black" d="M194,-231.32C194,-231.32 268,-231.32 268,-231.32 274,-231.32 280,-237.32 280,-243.32 280,-243.32 280,-341.13 280,-341.13 280,-347.13 274,-353.13 268,-353.13 268,-353.13 194,-353.13 194,-353.13 188,-353.13 182,-347.13 182,-341.13 182,-341.13 182,-243.32 182,-243.32 182,-237.32 188,-231.32 194,-231.32"/>
<text text-anchor="middle" x="265.25" y="-238.52" font-family="Times,serif" font-size="14.00">10</text>
</g>
<!-- X_data -->
<g id="node1" class="node">
<title>X_data</title>
<path fill="lightgrey" stroke="black" d="M59.5,-333.23C59.5,-333.23 28.5,-333.23 28.5,-333.23 22.5,-333.23 16.5,-327.23 16.5,-321.23 16.5,-321.23 16.5,-287.73 16.5,-287.73 16.5,-281.73 22.5,-275.73 28.5,-275.73 28.5,-275.73 59.5,-275.73 59.5,-275.73 65.5,-275.73 71.5,-281.73 71.5,-287.73 71.5,-287.73 71.5,-321.23 71.5,-321.23 71.5,-327.23 65.5,-333.23 59.5,-333.23"/>
<text text-anchor="middle" x="44" y="-315.93" font-family="Times,serif" font-size="14.00">X_data</text>
<text text-anchor="middle" x="44" y="-299.43" font-family="Times,serif" font-size="14.00">~</text>
<text text-anchor="middle" x="44" y="-282.93" font-family="Times,serif" font-size="14.00">Data</text>
</g>
<!-- y -->
<g id="node2" class="node">
<title>y</title>
<ellipse fill="lightgrey" stroke="black" cx="131" cy="-174.66" rx="47.38" ry="40.66"/>
<text text-anchor="middle" x="131" y="-186.11" font-family="Times,serif" font-size="14.00">y</text>
<text text-anchor="middle" x="131" y="-169.61" font-family="Times,serif" font-size="14.00">~</text>
<text text-anchor="middle" x="131" y="-153.11" font-family="Times,serif" font-size="14.00">Bernoulli</text>
</g>
<!-- X_data&#45;&gt;y -->
<g id="edge2" class="edge">
<title>X_data&#45;&gt;y</title>
<path fill="none" stroke="black" d="M56.29,-275.45C62.84,-261.68 71.5,-245.12 81,-231.32 84.77,-225.83 89.04,-220.31 93.45,-214.99"/>
<polygon fill="black" stroke="black" points="96.1,-217.28 99.96,-207.42 90.79,-212.72 96.1,-217.28"/>
</g>
<!-- y_data -->
<g id="node3" class="node">
<title>y_data</title>
<path fill="lightgrey" stroke="black" d="M146,-98C146,-98 116,-98 116,-98 110,-98 104,-92 104,-86 104,-86 104,-52.5 104,-52.5 104,-46.5 110,-40.5 116,-40.5 116,-40.5 146,-40.5 146,-40.5 152,-40.5 158,-46.5 158,-52.5 158,-52.5 158,-86 158,-86 158,-92 152,-98 146,-98"/>
<text text-anchor="middle" x="131" y="-80.7" font-family="Times,serif" font-size="14.00">y_data</text>
<text text-anchor="middle" x="131" y="-64.2" font-family="Times,serif" font-size="14.00">~</text>
<text text-anchor="middle" x="131" y="-47.7" font-family="Times,serif" font-size="14.00">Data</text>
</g>
<!-- y&#45;&gt;y_data -->
<g id="edge1" class="edge">
<title>y&#45;&gt;y_data</title>
<path fill="none" stroke="black" d="M131,-133.68C131,-125.83 131,-117.6 131,-109.76"/>
<polygon fill="black" stroke="black" points="134.5,-109.79 131,-99.79 127.5,-109.79 134.5,-109.79"/>
</g>
<!-- alpha -->
<g id="node4" class="node">
<title>alpha</title>
<ellipse fill="none" stroke="black" cx="131" cy="-304.48" rx="41.01" ry="40.66"/>
<text text-anchor="middle" x="131" y="-315.93" font-family="Times,serif" font-size="14.00">alpha</text>
<text text-anchor="middle" x="131" y="-299.43" font-family="Times,serif" font-size="14.00">~</text>
<text text-anchor="middle" x="131" y="-282.93" font-family="Times,serif" font-size="14.00">Normal</text>
</g>
<!-- alpha&#45;&gt;y -->
<g id="edge3" class="edge">
<title>alpha&#45;&gt;y</title>
<path fill="none" stroke="black" d="M131,-263.38C131,-251.84 131,-239.1 131,-226.98"/>
<polygon fill="black" stroke="black" points="134.5,-227.12 131,-217.12 127.5,-227.12 134.5,-227.12"/>
</g>
<!-- beta -->
<g id="node5" class="node">
<title>beta</title>
<ellipse fill="none" stroke="black" cx="231" cy="-304.48" rx="41.01" ry="40.66"/>
<text text-anchor="middle" x="231" y="-315.93" font-family="Times,serif" font-size="14.00">beta</text>
<text text-anchor="middle" x="231" y="-299.43" font-family="Times,serif" font-size="14.00">~</text>
<text text-anchor="middle" x="231" y="-282.93" font-family="Times,serif" font-size="14.00">Normal</text>
</g>
<!-- beta&#45;&gt;y -->
<g id="edge4" class="edge">
<title>beta&#45;&gt;y</title>
<path fill="none" stroke="black" d="M208.95,-269.79C200.54,-257.45 190.64,-243.51 181,-231.32 176.77,-225.97 172.17,-220.47 167.54,-215.11"/>
<polygon fill="black" stroke="black" points="170.5,-213.18 161.27,-207.99 165.24,-217.8 170.5,-213.18"/>
</g>
</g>
</svg>