<?xml version="1.0" encoding="UTF-8" standalone="no"?>
<!DOCTYPE svg PUBLIC "-//W3C//DTD SVG 1.1//EN"
 "http://www.w3.org/Graphics/SVG/1.1/DTD/svg11.dtd">
<!-- Generated by graphviz version 13.1.2 (0)
 -->
<!-- Pages: 1 -->
<svg width="440pt" height="698pt"
 viewBox="0.00 0.00 440.00 698.00" xmlns="http://www.w3.org/2000/svg" xmlns:xlink="http://www.w3.org/1999/xlink">
<g id="graph0" class="graph" transform="scale(1 1) rotate(0) translate(4 693.68)">
<polygon fill="white" stroke="none" points="-4,4 -4,-693.68 436,-693.68 436,4 -4,4"/>
<g id="clust1" class="cluster">
<title>cluster5</title>
<path fill="none" stroke="black" d="M253,-470.45C253,-470.45 335,-470.45 335,-470.45 341,-470.45 347,-476.45 347,-482.45 347,-482.45 347,-556.45 347,-556.45 347,-562.45 341,-568.45 335,-568.45 335,-568.45 253,-568.45 253,-568.45 247,-568.45 241,-562.45 241,-556.45 241,-556.45 241,-482.45 241,-482.45 241,-476.45 247,-470.45 253,-470.45"/>
<text xml:space="preserve" text-anchor="middle" x="335.62" y="-477.65" font-family="Times,serif" font-size="14.00">5</text>
</g>
<g id="clust2" class="cluster">
<title>cluster4</title>
<path fill="none" stroke="black" d="M20,-340.63C20,-340.63 190,-340.63 190,-340.63 196,-340.63 202,-346.63 202,-352.63 202,-352.63 202,-450.45 202,-450.45 202,-456.45 196,-462.45 190,-462.45 190,-462.45 20,-462.45 20,-462.45 14,-462.45 8,-456.45 8,-450.45 8,-450.45 8,-352.63 8,-352.63 8,-346.63 14,-340.63 20,-340.63"/>
<text xml:space="preserve" text-anchor="middle" x="190.62" y="-347.83" font-family="Times,serif" font-size="14.00">4</text>
</g>
<g id="clust3" class="cluster">
<title>cluster1</title>
<path fill="none" stroke="black" d="M222,-340.63C222,-340.63 412,-340.63 412,-340.63 418,-340.63 424,-346.63 424,-352.63 424,-352.63 424,-450.45 424,-450.45 424,-456.45 418,-462.45 412,-462.45 412,-462.45 222,-462.45 222,-462.45 216,-462.45 210,-456.45 210,-450.45 210,-450.45 210,-352.63 210,-352.63 210,-346.63 216,-340.63 222,-340.63"/>
<text xml:space="preserve" text-anchor="middle" x="412.62" y="-347.83" font-family="Times,serif" font-size="14.00">1</text>
</g>
<g id="clust4" class="cluster">
<title>cluster1 x 5</title>
<path fill="none" stroke="black" d="M168,-8C168,-8 254,-8 254,-8 260,-8 266,-14 266,-20 266,-20 266,-316.73 266,-316.73 266,-322.73 260,-328.73 254,-328.73 254,-328.73 168,-328.73 168,-328.73 162,-328.73 156,-322.73 156,-316.73 156,-316.73 156,-20 156,-20 156,-14 162,-8 168,-8"/>
<text xml:space="preserve" text-anchor="middle" x="244.12" y="-15.2" font-family="Times,serif" font-size="14.00">1 x 5</text>
</g>
<!-- sigma -->
<g id="node1" class="node">
<title>sigma</title>
<ellipse fill="none" stroke="black" cx="128" cy="-531.7" rx="57.45" ry="40.66"/>
<text xml:space="preserve" text-anchor="middle" x="128" y="-543.15" font-family="Times,serif" font-size="14.00">sigma</text>
<text xml:space="preserve" text-anchor="middle" x="128" y="-526.65" font-family="Times,serif" font-size="14.00">~</text>
<text xml:space="preserve" text-anchor="middle" x="128" y="-510.15" font-family="Times,serif" font-size="14.00">Exponential</text>
</g>
<!-- likelihood_observed -->
<g id="node6" class="node">
<title>likelihood_observed</title>
<ellipse fill="lightgrey" stroke="black" cx="105" cy="-413.79" rx="89.27" ry="40.66"/>
<text xml:space="preserve" text-anchor="middle" x="105" y="-425.24" font-family="Times,serif" font-size="14.00">likelihood_observed</text>
<text xml:space="preserve" text-anchor="middle" x="105" y="-408.74" font-family="Times,serif" font-size="14.00">~</text>
<text xml:space="preserve" text-anchor="middle" x="105" y="-392.24" font-family="Times,serif" font-size="14.00">Normal</text>
</g>
<!-- sigma&#45;&gt;likelihood_observed -->
<g id="edge3" class="edge">
<title>sigma&#45;&gt;likelihood_observed</title>
<path fill="none" stroke="black" d="M120.15,-491.14C118.52,-482.93 116.78,-474.17 115.09,-465.62"/>
<polygon fill="black" stroke="black" points="118.57,-465.19 113.19,-456.06 111.7,-466.55 118.57,-465.19"/>
</g>
<!-- likelihood_unobserved -->
<g id="node7" class="node">
<title>likelihood_unobserved</title>
<ellipse fill="none" stroke="black" cx="317" cy="-413.79" rx="98.82" ry="40.66"/>
<text xml:space="preserve" text-anchor="middle" x="317" y="-425.24" font-family="Times,serif" font-size="14.00">likelihood_unobserved</text>
<text xml:space="preserve" text-anchor="middle" x="317" y="-408.74" font-family="Times,serif" font-size="14.00">~</text>
<text xml:space="preserve" text-anchor="middle" x="317" y="-392.24" font-family="Times,serif" font-size="14.00">Normal</text>
</g>
<!-- sigma&#45;&gt;likelihood_unobserved -->
<g id="edge5" class="edge">
<title>sigma&#45;&gt;likelihood_unobserved</title>
<path fill="none" stroke="black" d="M170.89,-504.4C195.14,-489.53 225.93,-470.65 252.98,-454.05"/>
<polygon fill="black" stroke="black" points="254.78,-457.06 261.47,-448.85 251.12,-451.09 254.78,-457.06"/>
</g>
<!-- beta -->
<g id="node2" class="node">
<title>beta</title>
<ellipse fill="none" stroke="black" cx="244" cy="-649.02" rx="41.01" ry="40.66"/>
<text xml:space="preserve" text-anchor="middle" x="244" y="-660.47" font-family="Times,serif" font-size="14.00">beta</text>
<text xml:space="preserve" text-anchor="middle" x="244" y="-643.97" font-family="Times,serif" font-size="14.00">~</text>
<text xml:space="preserve" text-anchor="middle" x="244" y="-627.47" font-family="Times,serif" font-size="14.00">Normal</text>
</g>
<!-- mu -->
<g id="node5" class="node">
<title>mu</title>
<polygon fill="none" stroke="black" points="339.12,-560.45 248.88,-560.45 248.88,-502.95 339.12,-502.95 339.12,-560.45"/>
<text xml:space="preserve" text-anchor="middle" x="294" y="-543.15" font-family="Times,serif" font-size="14.00">mu</text>
<text xml:space="preserve" text-anchor="middle" x="294" y="-526.65" font-family="Times,serif" font-size="14.00">~</text>
<text xml:space="preserve" text-anchor="middle" x="294" y="-510.15" font-family="Times,serif" font-size="14.00">Deterministic</text>
</g>
<!-- beta&#45;&gt;mu -->
<g id="edge1" class="edge">
<title>beta&#45;&gt;mu</title>
<path fill="none" stroke="black" d="M259.96,-611.21C265.5,-598.44 271.72,-584.1 277.31,-571.19"/>
<polygon fill="black" stroke="black" points="280.47,-572.72 281.23,-562.15 274.04,-569.93 280.47,-572.72"/>
</g>
<!-- a -->
<g id="node3" class="node">
<title>a</title>
<ellipse fill="none" stroke="black" cx="317" cy="-291.98" rx="42.6" ry="40.66"/>
<text xml:space="preserve" text-anchor="middle" x="317" y="-303.43" font-family="Times,serif" font-size="14.00">a</text>
<text xml:space="preserve" text-anchor="middle" x="317" y="-286.93" font-family="Times,serif" font-size="14.00">~</text>
<text xml:space="preserve" text-anchor="middle" x="317" y="-270.43" font-family="Times,serif" font-size="14.00">Logistic</text>
</g>
<!-- p -->
<g id="node9" class="node">
<title>p</title>
<polygon fill="none" stroke="black" points="256.12,-215.32 165.88,-215.32 165.88,-157.82 256.12,-157.82 256.12,-215.32"/>
<text xml:space="preserve" text-anchor="middle" x="211" y="-198.02" font-family="Times,serif" font-size="14.00">p</text>
<text xml:space="preserve" text-anchor="middle" x="211" y="-181.52" font-family="Times,serif" font-size="14.00">~</text>
<text xml:space="preserve" text-anchor="middle" x="211" y="-165.02" font-family="Times,serif" font-size="14.00">Deterministic</text>
</g>
<!-- a&#45;&gt;p -->
<g id="edge10" class="edge">
<title>a&#45;&gt;p</title>
<path fill="none" stroke="black" d="M287.47,-262.17C275.09,-250.1 260.58,-235.93 247.53,-223.21"/>
<polygon fill="black" stroke="black" points="250.32,-221.04 240.72,-216.56 245.43,-226.05 250.32,-221.04"/>
</g>
<!-- alpha -->
<g id="node4" class="node">
<title>alpha</title>
<ellipse fill="none" stroke="black" cx="344" cy="-649.02" rx="41.01" ry="40.66"/>
<text xml:space="preserve" text-anchor="middle" x="344" y="-660.47" font-family="Times,serif" font-size="14.00">alpha</text>
<text xml:space="preserve" text-anchor="middle" x="344" y="-643.97" font-family="Times,serif" font-size="14.00">~</text>
<text xml:space="preserve" text-anchor="middle" x="344" y="-627.47" font-family="Times,serif" font-size="14.00">Normal</text>
</g>
<!-- alpha&#45;&gt;mu -->
<g id="edge2" class="edge">
<title>alpha&#45;&gt;mu</title>
<path fill="none" stroke="black" d="M328.04,-611.21C322.5,-598.44 316.28,-584.1 310.69,-571.19"/>
<polygon fill="black" stroke="black" points="313.96,-569.93 306.77,-562.15 307.53,-572.72 313.96,-569.93"/>
</g>
<!-- mu&#45;&gt;likelihood_observed -->
<g id="edge4" class="edge">
<title>mu&#45;&gt;likelihood_observed</title>
<path fill="none" stroke="black" d="M248.73,-502.94C224.32,-487.97 193.82,-469.27 167.21,-452.95"/>
<polygon fill="black" stroke="black" points="169.25,-450.09 158.89,-447.84 165.59,-456.05 169.25,-450.09"/>
</g>
<!-- mu&#45;&gt;likelihood_unobserved -->
<g id="edge6" class="edge">
<title>mu&#45;&gt;likelihood_unobserved</title>
<path fill="none" stroke="black" d="M299.57,-502.64C301.79,-491.45 304.42,-478.21 306.95,-465.45"/>
<polygon fill="black" stroke="black" points="310.33,-466.39 308.84,-455.9 303.46,-465.03 310.33,-466.39"/>
</g>
<!-- likelihood -->
<g id="node10" class="node">
<title>likelihood</title>
<polygon fill="none" stroke="black" points="256.12,-320.73 165.88,-320.73 165.88,-263.23 256.12,-263.23 256.12,-320.73"/>
<text xml:space="preserve" text-anchor="middle" x="211" y="-303.43" font-family="Times,serif" font-size="14.00">likelihood</text>
<text xml:space="preserve" text-anchor="middle" x="211" y="-286.93" font-family="Times,serif" font-size="14.00">~</text>
<text xml:space="preserve" text-anchor="middle" x="211" y="-270.43" font-family="Times,serif" font-size="14.00">Deterministic</text>
</g>
<!-- likelihood_observed&#45;&gt;likelihood -->
<g id="edge7" class="edge">
<title>likelihood_observed&#45;&gt;likelihood</title>
<path fill="none" stroke="black" d="M137.96,-375.54C150.96,-360.84 165.86,-344 178.79,-329.39"/>
<polygon fill="black" stroke="black" points="181.14,-332.01 185.14,-322.2 175.9,-327.37 181.14,-332.01"/>
</g>
<!-- likelihood_unobserved&#45;&gt;likelihood -->
<g id="edge8" class="edge">
<title>likelihood_unobserved&#45;&gt;likelihood</title>
<path fill="none" stroke="black" d="M283.75,-375.21C270.76,-360.52 255.92,-343.75 243.04,-329.2"/>
<polygon fill="black" stroke="black" points="245.97,-327.22 236.72,-322.05 240.73,-331.86 245.97,-327.22"/>
</g>
<!-- missing -->
<g id="node8" class="node">
<title>missing</title>
<ellipse fill="lightgrey" stroke="black" cx="211" cy="-81.16" rx="47.38" ry="40.66"/>
<text xml:space="preserve" text-anchor="middle" x="211" y="-92.61" font-family="Times,serif" font-size="14.00">missing</text>
<text xml:space="preserve" text-anchor="middle" x="211" y="-76.11" font-family="Times,serif" font-size="14.00">~</text>
<text xml:space="preserve" text-anchor="middle" x="211" y="-59.61" font-family="Times,serif" font-size="14.00">Bernoulli</text>
</g>
<!-- p&#45;&gt;missing -->
<g id="edge11" class="edge">
<title>p&#45;&gt;missing</title>
<path fill="none" stroke="black" d="M211,-157.58C211,-150.1 211,-141.77 211,-133.45"/>
<polygon fill="black" stroke="black" points="214.5,-133.71 211,-123.71 207.5,-133.71 214.5,-133.71"/>
</g>
<!-- likelihood&#45;&gt;p -->
<g id="edge9" class="edge">
<title>likelihood&#45;&gt;p</title>
<path fill="none" stroke="black" d="M211,-262.99C211,-251.84 211,-238.81 211,-226.75"/>
<polygon fill="black" stroke="black" points="214.5,-227.09 211,-217.09 207.5,-227.09 214.5,-227.09"/>
</g>
</g>
</svg>