<?xml version="1.0" encoding="UTF-8" standalone="no"?>
<!DOCTYPE svg PUBLIC "-//W3C//DTD SVG 1.1//EN"
 "http://www.w3.org/Graphics/SVG/1.1/DTD/svg11.dtd">
<!-- Generated by graphviz version 13.1.2 (0)
 -->
<!-- Pages: 1 -->
<svg width="1136pt" height="263pt"
 viewBox="0.00 0.00 1136.00 263.00" xmlns="http://www.w3.org/2000/svg" xmlns:xlink="http://www.w3.org/1999/xlink">
<g id="graph0" class="graph" transform="scale(1 1) rotate(0) translate(4 259.13)">
<polygon fill="white" stroke="none" points="-4,4 -4,-259.13 1132.12,-259.13 1132.12,4 -4,4"/>
<g id="clust1" class="cluster">
<title>cluster4</title>
<path fill="none" stroke="black" d="M650.12,-8C650.12,-8 796.12,-8 796.12,-8 802.12,-8 808.12,-14 808.12,-20 808.12,-20 808.12,-235.13 808.12,-235.13 808.12,-241.13 802.12,-247.13 796.12,-247.13 796.12,-247.13 650.12,-247.13 650.12,-247.13 644.12,-247.13 638.12,-241.13 638.12,-235.13 638.12,-235.13 638.12,-20 638.12,-20 638.12,-14 644.12,-8 650.12,-8"/>
<text xml:space="preserve" text-anchor="middle" x="796.75" y="-15.2" font-family="Times,serif" font-size="14.00">4</text>
</g>
<g id="clust2" class="cluster">
<title>cluster6</title>
<path fill="none" stroke="black" d="M828.12,-8C828.12,-8 1002.12,-8 1002.12,-8 1008.12,-8 1014.12,-14 1014.12,-20 1014.12,-20 1014.12,-117.82 1014.12,-117.82 1014.12,-123.82 1008.12,-129.82 1002.12,-129.82 1002.12,-129.82 828.12,-129.82 828.12,-129.82 822.12,-129.82 816.12,-123.82 816.12,-117.82 816.12,-117.82 816.12,-20 816.12,-20 816.12,-14 822.12,-8 828.12,-8"/>
<text xml:space="preserve" text-anchor="middle" x="1002.75" y="-15.2" font-family="Times,serif" font-size="14.00">6</text>
</g>
<g id="clust3" class="cluster">
<title>cluster8</title>
<path fill="none" stroke="black" d="M1034.12,-8C1034.12,-8 1108.12,-8 1108.12,-8 1114.12,-8 1120.12,-14 1120.12,-20 1120.12,-20 1120.12,-117.82 1120.12,-117.82 1120.12,-123.82 1114.12,-129.82 1108.12,-129.82 1108.12,-129.82 1034.12,-129.82 1034.12,-129.82 1028.12,-129.82 1022.12,-123.82 1022.12,-117.82 1022.12,-117.82 1022.12,-20 1022.12,-20 1022.12,-14 1028.12,-8 1034.12,-8"/>
<text xml:space="preserve" text-anchor="middle" x="1108.75" y="-15.2" font-family="Times,serif" font-size="14.00">8</text>
</g>
<!-- mu_0 -->
<g id="node1" class="node">
<title>mu_0</title>
<ellipse fill="none" stroke="black" cx="966.12" cy="-198.48" rx="41.01" ry="40.66"/>
<text xml:space="preserve" text-anchor="middle" x="966.12" y="-209.93" font-family="Times,serif" font-size="14.00">mu_0</text>
<text xml:space="preserve" text-anchor="middle" x="966.12" y="-193.43" font-family="Times,serif" font-size="14.00">~</text>
<text xml:space="preserve" text-anchor="middle" x="966.12" y="-176.93" font-family="Times,serif" font-size="14.00">Normal</text>
</g>
<!-- lik1 -->
<g id="node10" class="node">
<title>lik1</title>
<ellipse fill="lightgrey" stroke="black" cx="759.12" cy="-81.16" rx="41.01" ry="40.66"/>
<text xml:space="preserve" text-anchor="middle" x="759.12" y="-92.61" font-family="Times,serif" font-size="14.00">lik1</text>
<text xml:space="preserve" text-anchor="middle" x="759.12" y="-76.11" font-family="Times,serif" font-size="14.00">~</text>
<text xml:space="preserve" text-anchor="middle" x="759.12" y="-59.61" font-family="Times,serif" font-size="14.00">Normal</text>
</g>
<!-- mu_0&#45;&gt;lik1 -->
<g id="edge1" class="edge">
<title>mu_0&#45;&gt;lik1</title>
<path fill="none" stroke="black" d="M935.99,-170.41C929.73,-165.72 922.95,-161.26 916.12,-157.82 873.38,-136.28 854.19,-152.67 812.12,-129.82 806.41,-126.71 800.81,-122.88 795.52,-118.74"/>
<polygon fill="black" stroke="black" points="798.02,-116.26 788.1,-112.54 793.53,-121.64 798.02,-116.26"/>
</g>
<!-- lik3 -->
<g id="node11" class="node">
<title>lik3</title>
<ellipse fill="lightgrey" stroke="black" cx="865.12" cy="-81.16" rx="41.01" ry="40.66"/>
<text xml:space="preserve" text-anchor="middle" x="865.12" y="-92.61" font-family="Times,serif" font-size="14.00">lik3</text>
<text xml:space="preserve" text-anchor="middle" x="865.12" y="-76.11" font-family="Times,serif" font-size="14.00">~</text>
<text xml:space="preserve" text-anchor="middle" x="865.12" y="-59.61" font-family="Times,serif" font-size="14.00">Normal</text>
</g>
<!-- mu_0&#45;&gt;lik3 -->
<g id="edge7" class="edge">
<title>mu_0&#45;&gt;lik3</title>
<path fill="none" stroke="black" d="M939.59,-167.18C927.28,-153.12 912.49,-136.24 899.35,-121.24"/>
<polygon fill="black" stroke="black" points="902.05,-119.01 892.83,-113.79 896.79,-123.62 902.05,-119.01"/>
</g>
<!-- lik2 -->
<g id="node12" class="node">
<title>lik2</title>
<ellipse fill="lightgrey" stroke="black" cx="965.12" cy="-81.16" rx="41.01" ry="40.66"/>
<text xml:space="preserve" text-anchor="middle" x="965.12" y="-92.61" font-family="Times,serif" font-size="14.00">lik2</text>
<text xml:space="preserve" text-anchor="middle" x="965.12" y="-76.11" font-family="Times,serif" font-size="14.00">~</text>
<text xml:space="preserve" text-anchor="middle" x="965.12" y="-59.61" font-family="Times,serif" font-size="14.00">Normal</text>
</g>
<!-- mu_0&#45;&gt;lik2 -->
<g id="edge4" class="edge">
<title>mu_0&#45;&gt;lik2</title>
<path fill="none" stroke="black" d="M965.78,-157.47C965.71,-149.69 965.64,-141.43 965.57,-133.34"/>
<polygon fill="black" stroke="black" points="969.07,-133.58 965.48,-123.61 962.07,-133.64 969.07,-133.58"/>
</g>
<!-- lik4 -->
<g id="node13" class="node">
<title>lik4</title>
<ellipse fill="lightgrey" stroke="black" cx="1071.12" cy="-81.16" rx="41.01" ry="40.66"/>
<text xml:space="preserve" text-anchor="middle" x="1071.12" y="-92.61" font-family="Times,serif" font-size="14.00">lik4</text>
<text xml:space="preserve" text-anchor="middle" x="1071.12" y="-76.11" font-family="Times,serif" font-size="14.00">~</text>
<text xml:space="preserve" text-anchor="middle" x="1071.12" y="-59.61" font-family="Times,serif" font-size="14.00">Normal</text>
</g>
<!-- mu_0&#45;&gt;lik4 -->
<g id="edge10" class="edge">
<title>mu_0&#45;&gt;lik4</title>
<path fill="none" stroke="black" d="M993.17,-167.78C1006.39,-153.25 1022.46,-135.6 1036.57,-120.11"/>
<polygon fill="black" stroke="black" points="1039.01,-122.62 1043.16,-112.87 1033.84,-117.91 1039.01,-122.62"/>
</g>
<!-- α1&#45;α4 -->
<g id="node2" class="node">
<title>α1&#45;α4</title>
<polygon fill="none" stroke="black" points="198.25,-109.91 108,-109.91 108,-52.41 198.25,-52.41 198.25,-109.91"/>
<text xml:space="preserve" text-anchor="middle" x="153.12" y="-92.61" font-family="Times,serif" font-size="14.00">α1&#45;α4</text>
<text xml:space="preserve" text-anchor="middle" x="153.12" y="-76.11" font-family="Times,serif" font-size="14.00">~</text>
<text xml:space="preserve" text-anchor="middle" x="153.12" y="-59.61" font-family="Times,serif" font-size="14.00">Deterministic</text>
</g>
<!-- α1&#45;α2 -->
<g id="node3" class="node">
<title>α1&#45;α2</title>
<polygon fill="none" stroke="black" points="306.25,-109.91 216,-109.91 216,-52.41 306.25,-52.41 306.25,-109.91"/>
<text xml:space="preserve" text-anchor="middle" x="261.12" y="-92.61" font-family="Times,serif" font-size="14.00">α1&#45;α2</text>
<text xml:space="preserve" text-anchor="middle" x="261.12" y="-76.11" font-family="Times,serif" font-size="14.00">~</text>
<text xml:space="preserve" text-anchor="middle" x="261.12" y="-59.61" font-family="Times,serif" font-size="14.00">Deterministic</text>
</g>
<!-- tau -->
<g id="node4" class="node">
<title>tau</title>
<ellipse fill="none" stroke="black" cx="864.12" cy="-198.48" rx="42.6" ry="40.66"/>
<text xml:space="preserve" text-anchor="middle" x="864.12" y="-209.93" font-family="Times,serif" font-size="14.00">tau</text>
<text xml:space="preserve" text-anchor="middle" x="864.12" y="-193.43" font-family="Times,serif" font-size="14.00">~</text>
<text xml:space="preserve" text-anchor="middle" x="864.12" y="-176.93" font-family="Times,serif" font-size="14.00">Gamma</text>
</g>
<!-- tau&#45;&gt;lik1 -->
<g id="edge3" class="edge">
<title>tau&#45;&gt;lik1</title>
<path fill="none" stroke="black" d="M836.54,-167.18C823.41,-152.76 807.58,-135.38 793.67,-120.1"/>
<polygon fill="black" stroke="black" points="796.5,-118.01 787.18,-112.97 791.33,-122.73 796.5,-118.01"/>
</g>
<!-- tau&#45;&gt;lik3 -->
<g id="edge9" class="edge">
<title>tau&#45;&gt;lik3</title>
<path fill="none" stroke="black" d="M864.47,-157.47C864.54,-149.69 864.61,-141.43 864.68,-133.34"/>
<polygon fill="black" stroke="black" points="868.18,-133.64 864.77,-123.61 861.18,-133.58 868.18,-133.64"/>
</g>
<!-- tau&#45;&gt;lik2 -->
<g id="edge6" class="edge">
<title>tau&#45;&gt;lik2</title>
<path fill="none" stroke="black" d="M891.19,-166.57C903.5,-152.52 918.2,-135.74 931.23,-120.86"/>
<polygon fill="black" stroke="black" points="933.73,-123.32 937.69,-113.49 928.46,-118.7 933.73,-123.32"/>
</g>
<!-- tau&#45;&gt;lik4 -->
<g id="edge12" class="edge">
<title>tau&#45;&gt;lik4</title>
<path fill="none" stroke="black" d="M895.59,-170.47C902.09,-165.78 909.1,-161.29 916.12,-157.82 958.25,-136.96 976.87,-152.36 1018.12,-129.82 1023.83,-126.7 1029.42,-122.86 1034.71,-118.71"/>
<polygon fill="black" stroke="black" points="1036.71,-121.61 1042.13,-112.51 1032.22,-116.24 1036.71,-121.61"/>
</g>
<!-- α3&#45;α4 -->
<g id="node5" class="node">
<title>α3&#45;α4</title>
<polygon fill="none" stroke="black" points="414.25,-109.91 324,-109.91 324,-52.41 414.25,-52.41 414.25,-109.91"/>
<text xml:space="preserve" text-anchor="middle" x="369.12" y="-92.61" font-family="Times,serif" font-size="14.00">α3&#45;α4</text>
<text xml:space="preserve" text-anchor="middle" x="369.12" y="-76.11" font-family="Times,serif" font-size="14.00">~</text>
<text xml:space="preserve" text-anchor="middle" x="369.12" y="-59.61" font-family="Times,serif" font-size="14.00">Deterministic</text>
</g>
<!-- α2&#45;α4 -->
<g id="node6" class="node">
<title>α2&#45;α4</title>
<polygon fill="none" stroke="black" points="522.25,-109.91 432,-109.91 432,-52.41 522.25,-52.41 522.25,-109.91"/>
<text xml:space="preserve" text-anchor="middle" x="477.12" y="-92.61" font-family="Times,serif" font-size="14.00">α2&#45;α4</text>
<text xml:space="preserve" text-anchor="middle" x="477.12" y="-76.11" font-family="Times,serif" font-size="14.00">~</text>
<text xml:space="preserve" text-anchor="middle" x="477.12" y="-59.61" font-family="Times,serif" font-size="14.00">Deterministic</text>
</g>
<!-- α2&#45;α3 -->
<g id="node7" class="node">
<title>α2&#45;α3</title>
<polygon fill="none" stroke="black" points="630.25,-109.91 540,-109.91 540,-52.41 630.25,-52.41 630.25,-109.91"/>
<text xml:space="preserve" text-anchor="middle" x="585.12" y="-92.61" font-family="Times,serif" font-size="14.00">α2&#45;α3</text>
<text xml:space="preserve" text-anchor="middle" x="585.12" y="-76.11" font-family="Times,serif" font-size="14.00">~</text>
<text xml:space="preserve" text-anchor="middle" x="585.12" y="-59.61" font-family="Times,serif" font-size="14.00">Deterministic</text>
</g>
<!-- α1&#45;α3 -->
<g id="node8" class="node">
<title>α1&#45;α3</title>
<polygon fill="none" stroke="black" points="90.25,-109.91 0,-109.91 0,-52.41 90.25,-52.41 90.25,-109.91"/>
<text xml:space="preserve" text-anchor="middle" x="45.12" y="-92.61" font-family="Times,serif" font-size="14.00">α1&#45;α3</text>
<text xml:space="preserve" text-anchor="middle" x="45.12" y="-76.11" font-family="Times,serif" font-size="14.00">~</text>
<text xml:space="preserve" text-anchor="middle" x="45.12" y="-59.61" font-family="Times,serif" font-size="14.00">Deterministic</text>
</g>
<!-- alpha -->
<g id="node9" class="node">
<title>alpha</title>
<ellipse fill="none" stroke="black" cx="723.12" cy="-198.48" rx="77.07" ry="40.66"/>
<text xml:space="preserve" text-anchor="middle" x="723.12" y="-209.93" font-family="Times,serif" font-size="14.00">alpha</text>
<text xml:space="preserve" text-anchor="middle" x="723.12" y="-193.43" font-family="Times,serif" font-size="14.00">~</text>
<text xml:space="preserve" text-anchor="middle" x="723.12" y="-176.93" font-family="Times,serif" font-size="14.00">ZeroSumNormal</text>
</g>
<!-- alpha&#45;&gt;α1&#45;α4 -->
<g id="edge15" class="edge">
<title>alpha&#45;&gt;α1&#45;α4</title>
<path fill="none" stroke="black" d="M646.64,-192.93C522.63,-184.66 283.82,-164.69 207.12,-129.82 200.17,-126.65 193.45,-122.28 187.26,-117.46"/>
<polygon fill="black" stroke="black" points="189.66,-114.9 179.75,-111.14 185.15,-120.26 189.66,-114.9"/>
</g>
<!-- alpha&#45;&gt;α1&#45;α2 -->
<g id="edge13" class="edge">
<title>alpha&#45;&gt;α1&#45;α2</title>
<path fill="none" stroke="black" d="M645.67,-197.19C560.69,-194.08 422.12,-180.68 315.12,-129.82 308.3,-126.57 301.68,-122.2 295.56,-117.42"/>
<polygon fill="black" stroke="black" points="298.04,-114.93 288.13,-111.17 293.53,-120.28 298.04,-114.93"/>
</g>
<!-- alpha&#45;&gt;α3&#45;α4 -->
<g id="edge18" class="edge">
<title>alpha&#45;&gt;α3&#45;α4</title>
<path fill="none" stroke="black" d="M647.15,-190.91C584.27,-183.06 494.08,-166.08 423.12,-129.82 416.54,-126.45 410.12,-122.1 404.13,-117.4"/>
<polygon fill="black" stroke="black" points="406.78,-115.05 396.87,-111.3 402.28,-120.41 406.78,-115.05"/>
</g>
<!-- alpha&#45;&gt;α2&#45;α4 -->
<g id="edge17" class="edge">
<title>alpha&#45;&gt;α2&#45;α4</title>
<path fill="none" stroke="black" d="M654.13,-180.16C616.26,-168.98 569.37,-152.28 531.12,-129.82 525.11,-126.29 519.15,-122.03 513.51,-117.53"/>
<polygon fill="black" stroke="black" points="516.02,-115.07 506.11,-111.31 511.51,-120.43 516.02,-115.07"/>
</g>
<!-- alpha&#45;&gt;α2&#45;α3 -->
<g id="edge16" class="edge">
<title>alpha&#45;&gt;α2&#45;α3</title>
<path fill="none" stroke="black" d="M678.38,-165.13C663.96,-154.27 648.1,-141.85 634.12,-129.82 629.8,-126.09 625.36,-122.08 621.02,-118.02"/>
<polygon fill="black" stroke="black" points="623.57,-115.63 613.91,-111.27 618.75,-120.7 623.57,-115.63"/>
</g>
<!-- alpha&#45;&gt;α1&#45;α3 -->
<g id="edge14" class="edge">
<title>alpha&#45;&gt;α1&#45;α3</title>
<path fill="none" stroke="black" d="M646.11,-194.92C501.54,-189.19 195.39,-172.3 99.12,-129.82 92.13,-126.73 85.4,-122.4 79.2,-117.6"/>
<polygon fill="black" stroke="black" points="81.6,-115.04 71.69,-111.28 77.09,-120.4 81.6,-115.04"/>
</g>
<!-- alpha&#45;&gt;lik1 -->
<g id="edge2" class="edge">
<title>alpha&#45;&gt;lik1</title>
<path fill="none" stroke="black" d="M735.41,-158.11C738.14,-149.39 741.05,-140.05 743.88,-131"/>
<polygon fill="black" stroke="black" points="747.17,-132.21 746.81,-121.62 740.48,-130.12 747.17,-132.21"/>
</g>
<!-- alpha&#45;&gt;lik3 -->
<g id="edge8" class="edge">
<title>alpha&#45;&gt;lik3</title>
<path fill="none" stroke="black" d="M767.6,-164.8C782,-153.92 797.92,-141.57 812.12,-129.82 817.07,-125.72 822.19,-121.33 827.21,-116.93"/>
<polygon fill="black" stroke="black" points="829.22,-119.82 834.38,-110.57 824.58,-114.59 829.22,-119.82"/>
</g>
<!-- alpha&#45;&gt;lik2 -->
<g id="edge5" class="edge">
<title>alpha&#45;&gt;lik2</title>
<path fill="none" stroke="black" d="M780.05,-170.56C790.6,-166.02 801.61,-161.56 812.12,-157.82 856.81,-141.89 873.8,-153.12 915.12,-129.82 920.15,-126.98 925.06,-123.53 929.71,-119.79"/>
<polygon fill="black" stroke="black" points="931.9,-122.52 937.16,-113.32 927.32,-117.23 931.9,-122.52"/>
</g>
<!-- alpha&#45;&gt;lik4 -->
<g id="edge11" class="edge">
<title>alpha&#45;&gt;lik4</title>
<path fill="none" stroke="black" d="M778.72,-169.82C789.6,-165.24 801.06,-160.96 812.12,-157.82 901,-132.54 934.28,-168.65 1018.12,-129.82 1024.1,-127.05 1029.87,-123.38 1035.28,-119.3"/>
<polygon fill="black" stroke="black" points="1037.33,-122.14 1042.83,-113.08 1032.88,-116.74 1037.33,-122.14"/>
</g>
</g>
</svg>