<?xml version="1.0" encoding="UTF-8" standalone="no"?>
<!DOCTYPE svg PUBLIC "-//W3C//DTD SVG 1.1//EN"
 "http://www.w3.org/Graphics/SVG/1.1/DTD/svg11.dtd">
<!-- Generated by graphviz version 13.1.2 (0)
 -->
<!-- Pages: 1 -->
<svg width="382pt" height="276pt"
 viewBox="0.00 0.00 382.00 276.00" xmlns="http://www.w3.org/2000/svg" xmlns:xlink="http://www.w3.org/1999/xlink">
<g id="graph0" class="graph" transform="scale(1 1) rotate(0) translate(4 271.63)">
<polygon fill="white" stroke="none" points="-4,4 -4,-271.63 378.01,-271.63 378.01,4 -4,4"/>
<g id="clust1" class="cluster">
<title>clusterdiets (4)</title>
<path fill="none" stroke="black" d="M208.01,-137.82C208.01,-137.82 354.01,-137.82 354.01,-137.82 360.01,-137.82 366.01,-143.82 366.01,-149.82 366.01,-149.82 366.01,-247.63 366.01,-247.63 366.01,-253.63 360.01,-259.63 354.01,-259.63 354.01,-259.63 208.01,-259.63 208.01,-259.63 202.01,-259.63 196.01,-253.63 196.01,-247.63 196.01,-247.63 196.01,-149.82 196.01,-149.82 196.01,-143.82 202.01,-137.82 208.01,-137.82"/>
<text xml:space="preserve" text-anchor="middle" x="335.51" y="-145.02" font-family="Times,serif" font-size="14.00">diets (4)</text>
</g>
<g id="clust2" class="cluster">
<title>cluster24</title>
<path fill="none" stroke="black" d="M94.01,-8C94.01,-8 192.01,-8 192.01,-8 198.01,-8 204.01,-14 204.01,-20 204.01,-20 204.01,-117.82 204.01,-117.82 204.01,-123.82 198.01,-129.82 192.01,-129.82 192.01,-129.82 94.01,-129.82 94.01,-129.82 88.01,-129.82 82.01,-123.82 82.01,-117.82 82.01,-117.82 82.01,-20 82.01,-20 82.01,-14 88.01,-8 94.01,-8"/>
<text xml:space="preserve" text-anchor="middle" x="189.26" y="-15.2" font-family="Times,serif" font-size="14.00">24</text>
</g>
<g id="clust3" class="cluster">
<title>clustercontrast_labels (6)</title>
<path fill="none" stroke="black" d="M235.01,-19.91C235.01,-19.91 327.01,-19.91 327.01,-19.91 333.01,-19.91 339.01,-25.91 339.01,-31.91 339.01,-31.91 339.01,-105.91 339.01,-105.91 339.01,-111.91 333.01,-117.91 327.01,-117.91 327.01,-117.91 235.01,-117.91 235.01,-117.91 229.01,-117.91 223.01,-111.91 223.01,-105.91 223.01,-105.91 223.01,-31.91 223.01,-31.91 223.01,-25.91 229.01,-19.91 235.01,-19.91"/>
<text xml:space="preserve" text-anchor="middle" x="280.76" y="-27.11" font-family="Times,serif" font-size="14.00">contrast_labels (6)</text>
</g>
<!-- mu[0] -->
<g id="node1" class="node">
<title>mu[0]</title>
<ellipse fill="none" stroke="black" cx="41.01" cy="-210.98" rx="41.01" ry="40.66"/>
<text xml:space="preserve" text-anchor="middle" x="41.01" y="-222.43" font-family="Times,serif" font-size="14.00">mu[0]</text>
<text xml:space="preserve" text-anchor="middle" x="41.01" y="-205.93" font-family="Times,serif" font-size="14.00">~</text>
<text xml:space="preserve" text-anchor="middle" x="41.01" y="-189.43" font-family="Times,serif" font-size="14.00">Normal</text>
</g>
<!-- Likelihood -->
<g id="node4" class="node">
<title>Likelihood</title>
<ellipse fill="lightgrey" stroke="black" cx="143.01" cy="-81.16" rx="53.21" ry="40.66"/>
<text xml:space="preserve" text-anchor="middle" x="143.01" y="-92.61" font-family="Times,serif" font-size="14.00">Likelihood</text>
<text xml:space="preserve" text-anchor="middle" x="143.01" y="-76.11" font-family="Times,serif" font-size="14.00">~</text>
<text xml:space="preserve" text-anchor="middle" x="143.01" y="-59.61" font-family="Times,serif" font-size="14.00">Normal</text>
</g>
<!-- mu[0]&#45;&gt;Likelihood -->
<g id="edge1" class="edge">
<title>mu[0]&#45;&gt;Likelihood</title>
<path fill="none" stroke="black" d="M62.93,-176.19C71.33,-163.83 81.25,-149.92 91.01,-137.82 95.05,-132.81 99.44,-127.69 103.89,-122.68"/>
<polygon fill="black" stroke="black" points="106.25,-125.29 110.38,-115.53 101.07,-120.59 106.25,-125.29"/>
</g>
<!-- tau -->
<g id="node2" class="node">
<title>tau</title>
<ellipse fill="none" stroke="black" cx="143.01" cy="-210.98" rx="42.6" ry="40.66"/>
<text xml:space="preserve" text-anchor="middle" x="143.01" y="-222.43" font-family="Times,serif" font-size="14.00">tau</text>
<text xml:space="preserve" text-anchor="middle" x="143.01" y="-205.93" font-family="Times,serif" font-size="14.00">~</text>
<text xml:space="preserve" text-anchor="middle" x="143.01" y="-189.43" font-family="Times,serif" font-size="14.00">Gamma</text>
</g>
<!-- tau&#45;&gt;Likelihood -->
<g id="edge3" class="edge">
<title>tau&#45;&gt;Likelihood</title>
<path fill="none" stroke="black" d="M143.01,-169.88C143.01,-158.34 143.01,-145.6 143.01,-133.48"/>
<polygon fill="black" stroke="black" points="146.51,-133.62 143.01,-123.62 139.51,-133.62 146.51,-133.62"/>
</g>
<!-- αlpha -->
<g id="node3" class="node">
<title>αlpha</title>
<ellipse fill="none" stroke="black" cx="281.01" cy="-210.98" rx="77.07" ry="40.66"/>
<text xml:space="preserve" text-anchor="middle" x="281.01" y="-222.43" font-family="Times,serif" font-size="14.00">αlpha</text>
<text xml:space="preserve" text-anchor="middle" x="281.01" y="-205.93" font-family="Times,serif" font-size="14.00">~</text>
<text xml:space="preserve" text-anchor="middle" x="281.01" y="-189.43" font-family="Times,serif" font-size="14.00">ZeroSumNormal</text>
</g>
<!-- αlpha&#45;&gt;Likelihood -->
<g id="edge2" class="edge">
<title>αlpha&#45;&gt;Likelihood</title>
<path fill="none" stroke="black" d="M243.3,-175.05C225.17,-158.26 203.38,-138.07 184.75,-120.82"/>
<polygon fill="black" stroke="black" points="187.27,-118.38 177.55,-114.15 182.51,-123.51 187.27,-118.38"/>
</g>
<!-- Contrast -->
<g id="node5" class="node">
<title>Contrast</title>
<polygon fill="none" stroke="black" points="326.14,-109.91 235.89,-109.91 235.89,-52.41 326.14,-52.41 326.14,-109.91"/>
<text xml:space="preserve" text-anchor="middle" x="281.01" y="-92.61" font-family="Times,serif" font-size="14.00">Contrast</text>
<text xml:space="preserve" text-anchor="middle" x="281.01" y="-76.11" font-family="Times,serif" font-size="14.00">~</text>
<text xml:space="preserve" text-anchor="middle" x="281.01" y="-59.61" font-family="Times,serif" font-size="14.00">Deterministic</text>
</g>
<!-- αlpha&#45;&gt;Contrast -->
<g id="edge4" class="edge">
<title>αlpha&#45;&gt;Contrast</title>
<path fill="none" stroke="black" d="M281.01,-169.88C281.01,-154.48 281.01,-136.93 281.01,-121.59"/>
<polygon fill="black" stroke="black" points="284.51,-121.88 281.01,-111.88 277.51,-121.88 284.51,-121.88"/>
</g>
</g>
</svg>