<?xml version="1.0" encoding="UTF-8" standalone="no"?>
<!DOCTYPE svg PUBLIC "-//W3C//DTD SVG 1.1//EN"
 "http://www.w3.org/Graphics/SVG/1.1/DTD/svg11.dtd">
<!-- Generated by graphviz version 8.1.0 (0)
 -->
<!-- Pages: 1 -->
<svg width="328pt" height="369pt"
 viewBox="0.00 0.00 328.00 369.13" xmlns="http://www.w3.org/2000/svg" xmlns:xlink="http://www.w3.org/1999/xlink">
<g id="graph0" class="graph" transform="scale(1 1) rotate(0) translate(4 365.13)">
<polygon fill="white" stroke="none" points="-4,4 -4,-365.13 324,-365.13 324,4 -4,4"/>
<g id="clust1" class="cluster">
<title>cluster81 x 10</title>
<path fill="none" stroke="black" d="M20,-243.23C20,-243.23 100,-243.23 100,-243.23 106,-243.23 112,-249.23 112,-255.23 112,-255.23 112,-329.23 112,-329.23 112,-335.23 106,-341.23 100,-341.23 100,-341.23 20,-341.23 20,-341.23 14,-341.23 8,-335.23 8,-329.23 8,-329.23 8,-255.23 8,-255.23 8,-249.23 14,-243.23 20,-243.23"/>
<text text-anchor="middle" x="83.38" y="-250.43" font-family="Times,serif" font-size="14.00">81 x 10</text>
</g>
<g id="clust2" class="cluster">
<title>cluster81</title>
<path fill="none" stroke="black" d="M120,-8C120,-8 206,-8 206,-8 212,-8 218,-14 218,-20 218,-20 218,-211.32 218,-211.32 218,-217.32 212,-223.32 206,-223.32 206,-223.32 120,-223.32 120,-223.32 114,-223.32 108,-217.32 108,-211.32 108,-211.32 108,-20 108,-20 108,-14 114,-8 120,-8"/>
<text text-anchor="middle" x="203.25" y="-15.2" font-family="Times,serif" font-size="14.00">81</text>
</g>
<g id="clust3" class="cluster">
<title>cluster10</title>
<path fill="none" stroke="black" d="M226,-231.32C226,-231.32 300,-231.32 300,-231.32 306,-231.32 312,-237.32 312,-243.32 312,-243.32 312,-341.13 312,-341.13 312,-347.13 306,-353.13 300,-353.13 300,-353.13 226,-353.13 226,-353.13 220,-353.13 214,-347.13 214,-341.13 214,-341.13 214,-243.32 214,-243.32 214,-237.32 220,-231.32 226,-231.32"/>
<text text-anchor="middle" x="297.25" y="-238.52" font-family="Times,serif" font-size="14.00">10</text>
</g>
<!-- X_data -->
<g id="node1" class="node">
<title>X_data</title>
<path fill="lightgrey" stroke="black" d="M91.62,-333.23C91.62,-333.23 28.37,-333.23 28.37,-333.23 22.37,-333.23 16.38,-327.23 16.38,-321.23 16.38,-321.23 16.38,-287.73 16.38,-287.73 16.38,-281.73 22.38,-275.73 28.38,-275.73 28.38,-275.73 91.62,-275.73 91.62,-275.73 97.62,-275.73 103.62,-281.73 103.62,-287.73 103.62,-287.73 103.62,-321.23 103.62,-321.23 103.62,-327.23 97.62,-333.23 91.62,-333.23"/>
<text text-anchor="middle" x="60" y="-315.93" font-family="Times,serif" font-size="14.00">X_data</text>
<text text-anchor="middle" x="60" y="-299.43" font-family="Times,serif" font-size="14.00">~</text>
<text text-anchor="middle" x="60" y="-282.93" font-family="Times,serif" font-size="14.00">MutableData</text>
</g>
<!-- y -->
<g id="node2" class="node">
<title>y</title>
<ellipse fill="lightgrey" stroke="black" cx="163" cy="-174.66" rx="47.38" ry="40.66"/>
<text text-anchor="middle" x="163" y="-186.11" font-family="Times,serif" font-size="14.00">y</text>
<text text-anchor="middle" x="163" y="-169.61" font-family="Times,serif" font-size="14.00">~</text>
<text text-anchor="middle" x="163" y="-153.11" font-family="Times,serif" font-size="14.00">Bernoulli</text>
</g>
<!-- X_data&#45;&gt;y -->
<g id="edge3" class="edge">
<title>X_data&#45;&gt;y</title>
<path fill="none" stroke="black" d="M79.76,-275.24C89.47,-261.71 101.53,-245.43 113,-231.32 117.4,-225.9 122.16,-220.3 126.93,-214.84"/>
<polygon fill="black" stroke="black" points="128.89,-217.79 132.89,-207.98 123.65,-213.15 128.89,-217.79"/>
</g>
<!-- y_data -->
<g id="node3" class="node">
<title>y_data</title>
<path fill="lightgrey" stroke="black" d="M195.75,-98C195.75,-98 130.25,-98 130.25,-98 124.25,-98 118.25,-92 118.25,-86 118.25,-86 118.25,-52.5 118.25,-52.5 118.25,-46.5 124.25,-40.5 130.25,-40.5 130.25,-40.5 195.75,-40.5 195.75,-40.5 201.75,-40.5 207.75,-46.5 207.75,-52.5 207.75,-52.5 207.75,-86 207.75,-86 207.75,-92 201.75,-98 195.75,-98"/>
<text text-anchor="middle" x="163" y="-80.7" font-family="Times,serif" font-size="14.00">y_data</text>
<text text-anchor="middle" x="163" y="-64.2" font-family="Times,serif" font-size="14.00">~</text>
<text text-anchor="middle" x="163" y="-47.7" font-family="Times,serif" font-size="14.00">ConstantData</text>
</g>
<!-- y&#45;&gt;y_data -->
<g id="edge1" class="edge">
<title>y&#45;&gt;y_data</title>
<path fill="none" stroke="black" d="M163,-133.68C163,-125.64 163,-117.21 163,-109.21"/>
<polygon fill="black" stroke="black" points="166.5,-109.28 163,-99.28 159.5,-109.28 166.5,-109.28"/>
</g>
<!-- alpha -->
<g id="node4" class="node">
<title>alpha</title>
<ellipse fill="none" stroke="black" cx="163" cy="-304.48" rx="41.01" ry="40.66"/>
<text text-anchor="middle" x="163" y="-315.93" font-family="Times,serif" font-size="14.00">alpha</text>
<text text-anchor="middle" x="163" y="-299.43" font-family="Times,serif" font-size="14.00">~</text>
<text text-anchor="middle" x="163" y="-282.93" font-family="Times,serif" font-size="14.00">Normal</text>
</g>
<!-- alpha&#45;&gt;y -->
<g id="edge4" class="edge">
<title>alpha&#45;&gt;y</title>
<path fill="none" stroke="black" d="M163,-263.38C163,-251.73 163,-238.83 163,-226.6"/>
<polygon fill="black" stroke="black" points="166.5,-226.61 163,-216.61 159.5,-226.61 166.5,-226.61"/>
</g>
<!-- beta -->
<g id="node5" class="node">
<title>beta</title>
<ellipse fill="none" stroke="black" cx="263" cy="-304.48" rx="41.01" ry="40.66"/>
<text text-anchor="middle" x="263" y="-315.93" font-family="Times,serif" font-size="14.00">beta</text>
<text text-anchor="middle" x="263" y="-299.43" font-family="Times,serif" font-size="14.00">~</text>
<text text-anchor="middle" x="263" y="-282.93" font-family="Times,serif" font-size="14.00">Normal</text>
</g>
<!-- beta&#45;&gt;y -->
<g id="edge2" class="edge">
<title>beta&#45;&gt;y</title>
<path fill="none" stroke="black" d="M240.95,-269.79C232.54,-257.45 222.64,-243.51 213,-231.32 208.67,-225.84 203.95,-220.21 199.21,-214.73"/>
<polygon fill="black" stroke="black" points="202.5,-213.04 193.27,-207.85 197.25,-217.67 202.5,-213.04"/>
</g>
</g>
</svg>