<?xml version="1.0" encoding="UTF-8" standalone="no"?>
<!DOCTYPE svg PUBLIC "-//W3C//DTD SVG 1.1//EN"
 "http://www.w3.org/Graphics/SVG/1.1/DTD/svg11.dtd">
<!-- Generated by graphviz version 7.1.0 (0)
 -->
<!-- Pages: 1 -->
<svg width="438pt" height="355pt"
 viewBox="0.00 0.00 438.05 354.86" xmlns="http://www.w3.org/2000/svg" xmlns:xlink="http://www.w3.org/1999/xlink">
<g id="graph0" class="graph" transform="scale(1 1) rotate(0) translate(4 350.86)">
<polygon fill="white" stroke="none" points="-4,4 -4,-350.86 434.05,-350.86 434.05,4 -4,4"/>
<g id="clust1" class="cluster">
<title>cluster30 x 1</title>
<path fill="none" stroke="black" d="M134.2,-129.95C134.2,-129.95 311.2,-129.95 311.2,-129.95 317.2,-129.95 323.2,-135.95 323.2,-141.95 323.2,-141.95 323.2,-231.91 323.2,-231.91 323.2,-237.91 317.2,-243.91 311.2,-243.91 311.2,-243.91 134.2,-243.91 134.2,-243.91 128.2,-243.91 122.2,-237.91 122.2,-231.91 122.2,-231.91 122.2,-141.95 122.2,-141.95 122.2,-135.95 128.2,-129.95 134.2,-129.95"/>
<text text-anchor="middle" x="297.7" y="-137.75" font-family="Times,serif" font-size="14.00">30 x 1</text>
</g>
<g id="clust2" class="cluster">
<title>cluster30 x 5</title>
<path fill="none" stroke="black" d="M135.2,-8C135.2,-8 211.2,-8 211.2,-8 217.2,-8 223.2,-14 223.2,-20 223.2,-20 223.2,-109.95 223.2,-109.95 223.2,-115.95 217.2,-121.95 211.2,-121.95 211.2,-121.95 135.2,-121.95 135.2,-121.95 129.2,-121.95 123.2,-115.95 123.2,-109.95 123.2,-109.95 123.2,-20 123.2,-20 123.2,-14 129.2,-8 135.2,-8"/>
<text text-anchor="middle" x="197.7" y="-15.8" font-family="Times,serif" font-size="14.00">30 x 5</text>
</g>
<!-- sigma -->
<g id="node1" class="node">
<title>sigma</title>
<polygon fill="none" stroke="black" points="113.7,-102.98 22.7,-102.98 22.7,-49.98 113.7,-49.98 113.7,-102.98"/>
<text text-anchor="middle" x="68.2" y="-87.78" font-family="Times,serif" font-size="14.00">sigma</text>
<text text-anchor="middle" x="68.2" y="-72.78" font-family="Times,serif" font-size="14.00">~</text>
<text text-anchor="middle" x="68.2" y="-57.78" font-family="Times,serif" font-size="14.00">Deterministic</text>
</g>
<!-- mu_alpha -->
<g id="node2" class="node">
<title>mu_alpha</title>
<ellipse fill="none" stroke="black" cx="50.2" cy="-309.38" rx="50.41" ry="37.45"/>
<text text-anchor="middle" x="50.2" y="-320.68" font-family="Times,serif" font-size="14.00">mu_alpha</text>
<text text-anchor="middle" x="50.2" y="-305.68" font-family="Times,serif" font-size="14.00">~</text>
<text text-anchor="middle" x="50.2" y="-290.68" font-family="Times,serif" font-size="14.00">Normal</text>
</g>
<!-- alpha -->
<g id="node7" class="node">
<title>alpha</title>
<ellipse fill="none" stroke="black" cx="172.2" cy="-198.43" rx="41.94" ry="37.45"/>
<text text-anchor="middle" x="172.2" y="-209.73" font-family="Times,serif" font-size="14.00">alpha</text>
<text text-anchor="middle" x="172.2" y="-194.73" font-family="Times,serif" font-size="14.00">~</text>
<text text-anchor="middle" x="172.2" y="-179.73" font-family="Times,serif" font-size="14.00">Normal</text>
</g>
<!-- mu_alpha&#45;&gt;alpha -->
<g id="edge2" class="edge">
<title>mu_alpha&#45;&gt;alpha</title>
<path fill="none" stroke="black" d="M81.94,-280.04C98.05,-265.65 117.74,-248.07 134.6,-233.01"/>
<polygon fill="black" stroke="black" points="136.88,-235.67 142.01,-226.4 132.22,-230.45 136.88,-235.67"/>
</g>
<!-- tau_alpha -->
<g id="node3" class="node">
<title>tau_alpha</title>
<ellipse fill="none" stroke="black" cx="167.2" cy="-309.38" rx="48.58" ry="37.45"/>
<text text-anchor="middle" x="167.2" y="-320.68" font-family="Times,serif" font-size="14.00">tau_alpha</text>
<text text-anchor="middle" x="167.2" y="-305.68" font-family="Times,serif" font-size="14.00">~</text>
<text text-anchor="middle" x="167.2" y="-290.68" font-family="Times,serif" font-size="14.00">Gamma</text>
</g>
<!-- tau_alpha&#45;&gt;alpha -->
<g id="edge3" class="edge">
<title>tau_alpha&#45;&gt;alpha</title>
<path fill="none" stroke="black" d="M168.9,-271.5C169.25,-263.86 169.62,-255.72 169.99,-247.75"/>
<polygon fill="black" stroke="black" points="173.48,-247.94 170.44,-237.79 166.49,-247.62 173.48,-247.94"/>
</g>
<!-- mu_beta -->
<g id="node4" class="node">
<title>mu_beta</title>
<ellipse fill="none" stroke="black" cx="279.2" cy="-309.38" rx="45.01" ry="37.45"/>
<text text-anchor="middle" x="279.2" y="-320.68" font-family="Times,serif" font-size="14.00">mu_beta</text>
<text text-anchor="middle" x="279.2" y="-305.68" font-family="Times,serif" font-size="14.00">~</text>
<text text-anchor="middle" x="279.2" y="-290.68" font-family="Times,serif" font-size="14.00">Normal</text>
</g>
<!-- beta -->
<g id="node8" class="node">
<title>beta</title>
<ellipse fill="none" stroke="black" cx="273.2" cy="-198.43" rx="41.94" ry="37.45"/>
<text text-anchor="middle" x="273.2" y="-209.73" font-family="Times,serif" font-size="14.00">beta</text>
<text text-anchor="middle" x="273.2" y="-194.73" font-family="Times,serif" font-size="14.00">~</text>
<text text-anchor="middle" x="273.2" y="-179.73" font-family="Times,serif" font-size="14.00">Normal</text>
</g>
<!-- mu_beta&#45;&gt;beta -->
<g id="edge5" class="edge">
<title>mu_beta&#45;&gt;beta</title>
<path fill="none" stroke="black" d="M277.17,-271.5C276.75,-263.86 276.3,-255.72 275.87,-247.75"/>
<polygon fill="black" stroke="black" points="279.36,-247.58 275.32,-237.79 272.37,-247.97 279.36,-247.58"/>
</g>
<!-- tau_beta -->
<g id="node5" class="node">
<title>tau_beta</title>
<ellipse fill="none" stroke="black" cx="386.2" cy="-309.38" rx="43.68" ry="37.45"/>
<text text-anchor="middle" x="386.2" y="-320.68" font-family="Times,serif" font-size="14.00">tau_beta</text>
<text text-anchor="middle" x="386.2" y="-305.68" font-family="Times,serif" font-size="14.00">~</text>
<text text-anchor="middle" x="386.2" y="-290.68" font-family="Times,serif" font-size="14.00">Gamma</text>
</g>
<!-- tau_beta&#45;&gt;beta -->
<g id="edge4" class="edge">
<title>tau_beta&#45;&gt;beta</title>
<path fill="none" stroke="black" d="M357.4,-280.61C342.7,-266.43 324.67,-249.06 309.08,-234.02"/>
<polygon fill="black" stroke="black" points="311.9,-231.87 302.27,-227.45 307.04,-236.91 311.9,-231.87"/>
</g>
<!-- tau -->
<g id="node6" class="node">
<title>tau</title>
<ellipse fill="none" stroke="black" cx="68.2" cy="-198.43" rx="43.27" ry="37.45"/>
<text text-anchor="middle" x="68.2" y="-209.73" font-family="Times,serif" font-size="14.00">tau</text>
<text text-anchor="middle" x="68.2" y="-194.73" font-family="Times,serif" font-size="14.00">~</text>
<text text-anchor="middle" x="68.2" y="-179.73" font-family="Times,serif" font-size="14.00">Gamma</text>
</g>
<!-- tau&#45;&gt;sigma -->
<g id="edge1" class="edge">
<title>tau&#45;&gt;sigma</title>
<path fill="none" stroke="black" d="M68.2,-160.79C68.2,-146.11 68.2,-129.22 68.2,-114.5"/>
<polygon fill="black" stroke="black" points="71.7,-114.76 68.2,-104.76 64.7,-114.76 71.7,-114.76"/>
</g>
<!-- y -->
<g id="node9" class="node">
<title>y</title>
<ellipse fill="lightgrey" stroke="black" cx="173.2" cy="-76.48" rx="41.94" ry="37.45"/>
<text text-anchor="middle" x="173.2" y="-87.78" font-family="Times,serif" font-size="14.00">y</text>
<text text-anchor="middle" x="173.2" y="-72.78" font-family="Times,serif" font-size="14.00">~</text>
<text text-anchor="middle" x="173.2" y="-57.78" font-family="Times,serif" font-size="14.00">Normal</text>
</g>
<!-- tau&#45;&gt;y -->
<g id="edge6" class="edge">
<title>tau&#45;&gt;y</title>
<path fill="none" stroke="black" d="M90.03,-165.66C98.42,-154.08 108.36,-141.1 118.2,-129.95 123.67,-123.76 129.75,-117.47 135.81,-111.48"/>
<polygon fill="black" stroke="black" points="138.17,-114.07 142.93,-104.61 133.31,-109.04 138.17,-114.07"/>
</g>
<!-- alpha&#45;&gt;y -->
<g id="edge7" class="edge">
<title>alpha&#45;&gt;y</title>
<path fill="none" stroke="black" d="M172.51,-160.79C172.6,-149.73 172.7,-137.42 172.8,-125.72"/>
<polygon fill="black" stroke="black" points="176.3,-125.85 172.88,-115.82 169.3,-125.79 176.3,-125.85"/>
</g>
<!-- beta&#45;&gt;y -->
<g id="edge8" class="edge">
<title>beta&#45;&gt;y</title>
<path fill="none" stroke="black" d="M251.33,-166.25C242.86,-154.61 232.87,-141.44 223.2,-129.95 218.63,-124.52 213.65,-118.93 208.65,-113.52"/>
<polygon fill="black" stroke="black" points="211.28,-111.21 201.89,-106.31 206.18,-116 211.28,-111.21"/>
</g>
</g>
</svg>