<?xml version="1.0" encoding="UTF-8" standalone="no"?>
<!DOCTYPE svg PUBLIC "-//W3C//DTD SVG 1.1//EN"
 "http://www.w3.org/Graphics/SVG/1.1/DTD/svg11.dtd">
<!-- Generated by graphviz version 4.0.0 (0)
 -->
<!-- Pages: 1 -->
<svg width="307pt" height="233pt"
 viewBox="0.00 0.00 307.22 232.91" xmlns="http://www.w3.org/2000/svg" xmlns:xlink="http://www.w3.org/1999/xlink">
<g id="graph0" class="graph" transform="scale(1 1) rotate(0) translate(4 228.91)">
<polygon fill="white" stroke="transparent" points="-4,4 -4,-228.91 303.22,-228.91 303.22,4 -4,4"/>
<g id="clust1" class="cluster">
<title>cluster5</title>
<path fill="none" stroke="black" d="M113.5,-8C113.5,-8 205.5,-8 205.5,-8 211.5,-8 217.5,-14 217.5,-20 217.5,-20 217.5,-109.95 217.5,-109.95 217.5,-115.95 211.5,-121.95 205.5,-121.95 205.5,-121.95 113.5,-121.95 113.5,-121.95 107.5,-121.95 101.5,-115.95 101.5,-109.95 101.5,-109.95 101.5,-20 101.5,-20 101.5,-14 107.5,-8 113.5,-8"/>
<text text-anchor="middle" x="206" y="-15.8" font-family="Times,serif" font-size="14.00">5</text>
</g>
<!-- tau -->
<g id="node1" class="node">
<title>tau</title>
<ellipse fill="none" stroke="black" cx="50.5" cy="-187.43" rx="43.27" ry="37.45"/>
<text text-anchor="middle" x="50.5" y="-198.73" font-family="Times,serif" font-size="14.00">tau</text>
<text text-anchor="middle" x="50.5" y="-183.73" font-family="Times,serif" font-size="14.00">~</text>
<text text-anchor="middle" x="50.5" y="-168.73" font-family="Times,serif" font-size="14.00">Gamma</text>
</g>
<!-- sigma -->
<g id="node4" class="node">
<title>sigma</title>
<polygon fill="none" stroke="black" points="91,-102.98 0,-102.98 0,-49.98 91,-49.98 91,-102.98"/>
<text text-anchor="middle" x="45.5" y="-87.78" font-family="Times,serif" font-size="14.00">sigma</text>
<text text-anchor="middle" x="45.5" y="-72.78" font-family="Times,serif" font-size="14.00">~</text>
<text text-anchor="middle" x="45.5" y="-57.78" font-family="Times,serif" font-size="14.00">Deterministic</text>
</g>
<!-- tau&#45;&gt;sigma -->
<g id="edge1" class="edge">
<title>tau&#45;&gt;sigma</title>
<path fill="none" stroke="black" d="M48.82,-149.85C48.28,-138.11 47.69,-125.12 47.15,-113.43"/>
<polygon fill="black" stroke="black" points="50.63,-112.96 46.68,-103.13 43.64,-113.28 50.63,-112.96"/>
</g>
<!-- likelihood -->
<g id="node5" class="node">
<title>likelihood</title>
<ellipse fill="lightgrey" stroke="black" cx="159.5" cy="-76.48" rx="50.41" ry="37.45"/>
<text text-anchor="middle" x="159.5" y="-87.78" font-family="Times,serif" font-size="14.00">likelihood</text>
<text text-anchor="middle" x="159.5" y="-72.78" font-family="Times,serif" font-size="14.00">~</text>
<text text-anchor="middle" x="159.5" y="-57.78" font-family="Times,serif" font-size="14.00">Normal</text>
</g>
<!-- tau&#45;&gt;likelihood -->
<g id="edge2" class="edge">
<title>tau&#45;&gt;likelihood</title>
<path fill="none" stroke="black" d="M78.29,-158.65C91.72,-145.23 108.02,-128.94 122.48,-114.48"/>
<polygon fill="black" stroke="black" points="125.26,-116.66 129.85,-107.11 120.31,-111.7 125.26,-116.66"/>
</g>
<!-- beta -->
<g id="node2" class="node">
<title>beta</title>
<ellipse fill="none" stroke="black" cx="156.5" cy="-187.43" rx="41.94" ry="37.45"/>
<text text-anchor="middle" x="156.5" y="-198.73" font-family="Times,serif" font-size="14.00">beta</text>
<text text-anchor="middle" x="156.5" y="-183.73" font-family="Times,serif" font-size="14.00">~</text>
<text text-anchor="middle" x="156.5" y="-168.73" font-family="Times,serif" font-size="14.00">Normal</text>
</g>
<!-- beta&#45;&gt;likelihood -->
<g id="edge3" class="edge">
<title>beta&#45;&gt;likelihood</title>
<path fill="none" stroke="black" d="M157.51,-149.85C157.73,-141.67 157.97,-132.89 158.21,-124.37"/>
<polygon fill="black" stroke="black" points="161.71,-124.24 158.49,-114.15 154.72,-124.05 161.71,-124.24"/>
</g>
<!-- alpha -->
<g id="node3" class="node">
<title>alpha</title>
<ellipse fill="none" stroke="black" cx="257.5" cy="-187.43" rx="41.94" ry="37.45"/>
<text text-anchor="middle" x="257.5" y="-198.73" font-family="Times,serif" font-size="14.00">alpha</text>
<text text-anchor="middle" x="257.5" y="-183.73" font-family="Times,serif" font-size="14.00">~</text>
<text text-anchor="middle" x="257.5" y="-168.73" font-family="Times,serif" font-size="14.00">Normal</text>
</g>
<!-- alpha&#45;&gt;likelihood -->
<g id="edge4" class="edge">
<title>alpha&#45;&gt;likelihood</title>
<path fill="none" stroke="black" d="M231.75,-157.8C220.17,-144.93 206.34,-129.55 193.89,-115.71"/>
<polygon fill="black" stroke="black" points="196.43,-113.3 187.14,-108.2 191.22,-117.98 196.43,-113.3"/>
</g>
</g>
</svg>
