<?xml version="1.0" encoding="UTF-8" standalone="no"?>
<!DOCTYPE svg PUBLIC "-//W3C//DTD SVG 1.1//EN"
 "http://www.w3.org/Graphics/SVG/1.1/DTD/svg11.dtd">
<!-- Generated by graphviz version 4.0.0 (0)
 -->
<!-- Pages: 1 -->
<svg width="297pt" height="233pt"
 viewBox="0.00 0.00 296.85 232.91" xmlns="http://www.w3.org/2000/svg" xmlns:xlink="http://www.w3.org/1999/xlink">
<g id="graph0" class="graph" transform="scale(1 1) rotate(0) translate(4 228.91)">
<polygon fill="white" stroke="transparent" points="-4,4 -4,-228.91 292.85,-228.91 292.85,4 -4,4"/>
<g id="clust1" class="cluster">
<title>cluster5</title>
<path fill="none" stroke="black" d="M100.13,-8C100.13,-8 192.13,-8 192.13,-8 198.13,-8 204.13,-14 204.13,-20 204.13,-20 204.13,-109.95 204.13,-109.95 204.13,-115.95 198.13,-121.95 192.13,-121.95 192.13,-121.95 100.13,-121.95 100.13,-121.95 94.13,-121.95 88.13,-115.95 88.13,-109.95 88.13,-109.95 88.13,-20 88.13,-20 88.13,-14 94.13,-8 100.13,-8"/>
<text text-anchor="middle" x="192.63" y="-15.8" font-family="Times,serif" font-size="14.00">5</text>
</g>
<!-- tau -->
<g id="node1" class="node">
<title>tau</title>
<ellipse fill="none" stroke="black" cx="43.13" cy="-187.43" rx="43.27" ry="37.45"/>
<text text-anchor="middle" x="43.13" y="-198.73" font-family="Times,serif" font-size="14.00">tau</text>
<text text-anchor="middle" x="43.13" y="-183.73" font-family="Times,serif" font-size="14.00">~</text>
<text text-anchor="middle" x="43.13" y="-168.73" font-family="Times,serif" font-size="14.00">Gamma</text>
</g>
<!-- likelihood -->
<g id="node4" class="node">
<title>likelihood</title>
<ellipse fill="lightgrey" stroke="black" cx="146.13" cy="-76.48" rx="50.41" ry="37.45"/>
<text text-anchor="middle" x="146.13" y="-87.78" font-family="Times,serif" font-size="14.00">likelihood</text>
<text text-anchor="middle" x="146.13" y="-72.78" font-family="Times,serif" font-size="14.00">~</text>
<text text-anchor="middle" x="146.13" y="-57.78" font-family="Times,serif" font-size="14.00">Normal</text>
</g>
<!-- tau&#45;&gt;likelihood -->
<g id="edge1" class="edge">
<title>tau&#45;&gt;likelihood</title>
<path fill="none" stroke="black" d="M70.2,-157.8C82.57,-144.72 97.39,-129.04 110.64,-115.02"/>
<polygon fill="black" stroke="black" points="113.49,-117.1 117.81,-107.43 108.4,-112.3 113.49,-117.1"/>
</g>
<!-- alpha -->
<g id="node2" class="node">
<title>alpha</title>
<ellipse fill="none" stroke="black" cx="146.13" cy="-187.43" rx="41.94" ry="37.45"/>
<text text-anchor="middle" x="146.13" y="-198.73" font-family="Times,serif" font-size="14.00">alpha</text>
<text text-anchor="middle" x="146.13" y="-183.73" font-family="Times,serif" font-size="14.00">~</text>
<text text-anchor="middle" x="146.13" y="-168.73" font-family="Times,serif" font-size="14.00">Normal</text>
</g>
<!-- alpha&#45;&gt;likelihood -->
<g id="edge2" class="edge">
<title>alpha&#45;&gt;likelihood</title>
<path fill="none" stroke="black" d="M146.13,-149.85C146.13,-141.67 146.13,-132.89 146.13,-124.37"/>
<polygon fill="black" stroke="black" points="149.63,-124.15 146.13,-114.15 142.63,-124.15 149.63,-124.15"/>
</g>
<!-- beta -->
<g id="node3" class="node">
<title>beta</title>
<ellipse fill="none" stroke="black" cx="247.13" cy="-187.43" rx="41.94" ry="37.45"/>
<text text-anchor="middle" x="247.13" y="-198.73" font-family="Times,serif" font-size="14.00">beta</text>
<text text-anchor="middle" x="247.13" y="-183.73" font-family="Times,serif" font-size="14.00">~</text>
<text text-anchor="middle" x="247.13" y="-168.73" font-family="Times,serif" font-size="14.00">Normal</text>
</g>
<!-- beta&#45;&gt;likelihood -->
<g id="edge3" class="edge">
<title>beta&#45;&gt;likelihood</title>
<path fill="none" stroke="black" d="M220.86,-158.09C208.83,-145.11 194.39,-129.53 181.43,-115.55"/>
<polygon fill="black" stroke="black" points="183.77,-112.92 174.4,-107.97 178.63,-117.68 183.77,-112.92"/>
</g>
</g>
</svg>
